G04*
G04 #@! TF.GenerationSoftware,Altium Limited,Altium Designer,18.1.7 (191)*
G04*
G04 Layer_Color=3326705*
%FSLAX25Y25*%
%MOIN*%
G70*
G01*
G75*
%ADD10C,0.02953*%
%ADD11C,0.01000*%
%ADD12C,0.01968*%
%ADD13C,0.00984*%
%ADD14C,0.01378*%
%ADD15C,0.01181*%
%ADD16C,0.02362*%
%ADD17C,0.00500*%
%ADD18C,0.01575*%
%ADD19C,0.01200*%
%ADD20C,0.00787*%
%ADD21C,0.00800*%
%ADD22C,0.02000*%
%ADD23R,0.05906X0.22047*%
G36*
X229000Y73500D02*
X245000D01*
Y72700D01*
X245800D01*
Y71900D01*
X246600D01*
Y71100D01*
Y70300D01*
X247400D01*
Y69500D01*
X248200D01*
Y68700D01*
X249000D01*
Y67900D01*
X248200D01*
Y67100D01*
Y66300D01*
Y65500D01*
Y64700D01*
Y63900D01*
Y63100D01*
Y62300D01*
Y61500D01*
X241000D01*
Y62300D01*
Y63100D01*
X241800D01*
Y63900D01*
Y64700D01*
Y65500D01*
Y66300D01*
Y67100D01*
Y67900D01*
X224200D01*
Y67100D01*
X223400D01*
Y66300D01*
Y65500D01*
Y64700D01*
Y63900D01*
X222600D01*
Y63100D01*
Y62300D01*
Y61500D01*
Y60700D01*
Y59900D01*
Y59100D01*
Y58300D01*
X221800D01*
Y57500D01*
Y56700D01*
Y55900D01*
Y55100D01*
Y54300D01*
Y53500D01*
Y52700D01*
X221000D01*
Y51900D01*
Y51100D01*
Y50300D01*
Y49500D01*
Y48700D01*
Y47900D01*
X227400D01*
Y48700D01*
Y49500D01*
Y50300D01*
Y51100D01*
X228200D01*
Y51900D01*
Y52700D01*
Y53500D01*
Y54300D01*
Y55100D01*
X227400D01*
Y55900D01*
X226600D01*
Y56700D01*
Y57500D01*
Y58300D01*
Y59100D01*
Y59900D01*
Y60700D01*
X236200D01*
Y59900D01*
Y59100D01*
Y58300D01*
X235400D01*
Y57500D01*
Y56700D01*
Y55900D01*
Y55100D01*
Y54300D01*
Y53500D01*
Y52700D01*
X234600D01*
Y51900D01*
Y51100D01*
Y50300D01*
Y49500D01*
Y48700D01*
Y47900D01*
X239400D01*
Y48700D01*
Y49500D01*
Y50300D01*
Y51100D01*
Y51900D01*
Y52700D01*
Y53500D01*
Y54300D01*
X246600D01*
Y53500D01*
Y52700D01*
X245800D01*
Y51900D01*
Y51100D01*
Y50300D01*
Y49500D01*
Y48700D01*
Y47900D01*
Y47100D01*
Y46300D01*
X245000D01*
Y45500D01*
X243400D01*
Y44700D01*
Y43900D01*
X241800D01*
Y43100D01*
X241000D01*
Y42300D01*
X240200D01*
Y41500D01*
X233000D01*
Y40700D01*
Y39900D01*
Y39100D01*
Y38300D01*
Y37500D01*
Y36700D01*
X232200D01*
Y35900D01*
Y35100D01*
X248200D01*
Y35900D01*
Y36700D01*
Y37500D01*
X249000D01*
Y38300D01*
Y39100D01*
Y39900D01*
Y40700D01*
Y41500D01*
Y42300D01*
Y43100D01*
X249800D01*
Y43900D01*
Y44700D01*
Y45500D01*
Y46300D01*
Y47100D01*
Y47900D01*
X250600D01*
Y48700D01*
Y49500D01*
Y50300D01*
Y51100D01*
Y51900D01*
Y52700D01*
Y53500D01*
Y54300D01*
X251400D01*
Y55100D01*
Y55900D01*
Y56700D01*
Y57500D01*
Y58300D01*
Y59100D01*
Y59900D01*
Y60700D01*
X261000D01*
Y59900D01*
Y59100D01*
Y58300D01*
Y57500D01*
Y56700D01*
X260200D01*
Y55900D01*
Y55100D01*
X257800D01*
Y54300D01*
Y53500D01*
Y52700D01*
Y51900D01*
X257000D01*
Y51100D01*
Y50300D01*
Y49500D01*
Y48700D01*
Y47900D01*
Y47100D01*
Y46300D01*
X256200D01*
Y45500D01*
Y44700D01*
Y43900D01*
Y43100D01*
Y42300D01*
Y41500D01*
Y40700D01*
Y39900D01*
X255400D01*
Y39100D01*
Y38300D01*
Y37500D01*
Y36700D01*
Y35900D01*
Y35100D01*
Y34300D01*
X254600D01*
Y33500D01*
X253800D01*
Y32700D01*
X253000D01*
Y31900D01*
X252200D01*
Y31100D01*
X251400D01*
Y30300D01*
X250600D01*
Y29500D01*
X249800D01*
Y28700D01*
X228200D01*
Y29500D01*
Y30300D01*
X227400D01*
Y31100D01*
X226600D01*
Y31900D01*
Y32700D01*
X225800D01*
Y33500D01*
Y34300D01*
Y35100D01*
Y35900D01*
Y36700D01*
Y37500D01*
Y38300D01*
Y39100D01*
X226600D01*
Y39900D01*
Y40700D01*
Y41500D01*
X217800D01*
Y42300D01*
X217000D01*
Y43100D01*
X216200D01*
Y43900D01*
X215400D01*
Y44700D01*
X214600D01*
Y45500D01*
X213800D01*
Y46300D01*
Y47100D01*
Y47900D01*
Y48700D01*
Y49500D01*
Y50300D01*
Y51100D01*
X214600D01*
Y51900D01*
Y52700D01*
Y53500D01*
Y54300D01*
Y55100D01*
Y55900D01*
X215400D01*
Y56700D01*
Y57500D01*
Y58300D01*
Y59100D01*
Y59900D01*
Y60700D01*
Y61500D01*
X216200D01*
Y62300D01*
Y63100D01*
Y63900D01*
Y64700D01*
Y65500D01*
Y66300D01*
Y67100D01*
X217000D01*
Y67900D01*
Y68700D01*
X217800D01*
Y69500D01*
X218600D01*
Y70300D01*
X219400D01*
Y71100D01*
X220200D01*
Y71900D01*
X221000D01*
Y72700D01*
X221800D01*
Y73500D01*
X222600D01*
Y74300D01*
X227400D01*
Y73500D01*
X228200D01*
Y74300D01*
X229000D01*
Y73500D01*
D02*
G37*
G36*
X465906Y334276D02*
D01*
D02*
G37*
%LPC*%
G36*
X218600Y67900D02*
X217800D01*
Y67100D01*
X218600D01*
Y67900D01*
D02*
G37*
G36*
X229800Y56700D02*
X229000D01*
Y55900D01*
X229800D01*
Y56700D01*
D02*
G37*
G36*
Y53500D02*
X229000D01*
Y52700D01*
X229800D01*
Y53500D01*
D02*
G37*
G36*
X252200Y50300D02*
X251400D01*
Y49500D01*
X252200D01*
Y50300D01*
D02*
G37*
G36*
X220200D02*
X219400D01*
Y49500D01*
X220200D01*
Y50300D01*
D02*
G37*
G36*
X229800Y31100D02*
X229000D01*
Y30300D01*
X229800D01*
Y31100D01*
D02*
G37*
%LPD*%
D10*
X276878Y374303D02*
G03*
X276878Y374303I-1378J0D01*
G01*
D11*
X200772Y114000D02*
G03*
X200772Y114000I-51772J0D01*
G01*
X491024Y288500D02*
G03*
X491024Y288500I-36024J0D01*
G01*
X25000Y75000D02*
Y324500D01*
X75000Y375000D02*
X550000D01*
X575000Y50000D02*
Y350000D01*
X75000Y25000D02*
X550000D01*
X269999Y50498D02*
X266000D01*
Y44500D01*
X269999D01*
X266000Y47499D02*
X267999D01*
X275997Y49498D02*
X274997Y50498D01*
X272998D01*
X271998Y49498D01*
Y45500D01*
X272998Y44500D01*
X274997D01*
X275997Y45500D01*
X281995Y50498D02*
X277996D01*
Y44500D01*
X281995D01*
X277996Y47499D02*
X279995D01*
X283994Y44500D02*
Y50498D01*
X287993Y44500D01*
Y50498D01*
X299989D02*
X295990D01*
Y47499D01*
X297990Y48499D01*
X298989D01*
X299989Y47499D01*
Y45500D01*
X298989Y44500D01*
X296990D01*
X295990Y45500D01*
X301988Y49498D02*
X302988Y50498D01*
X304987D01*
X305987Y49498D01*
Y45500D01*
X304987Y44500D01*
X302988D01*
X301988Y45500D01*
Y49498D01*
X307986D02*
X308986Y50498D01*
X310985D01*
X311985Y49498D01*
Y45500D01*
X310985Y44500D01*
X308986D01*
X307986Y45500D01*
Y49498D01*
X313984Y45500D02*
X314984Y44500D01*
X316984D01*
X317983Y45500D01*
Y49498D01*
X316984Y50498D01*
X314984D01*
X313984Y49498D01*
Y48499D01*
X314984Y47499D01*
X317983D01*
X325981Y50498D02*
Y44500D01*
X329979D01*
X335977Y50498D02*
X331979D01*
Y44500D01*
X335977D01*
X331979Y47499D02*
X333978D01*
X337977Y50498D02*
Y44500D01*
X340976D01*
X341975Y45500D01*
Y49498D01*
X340976Y50498D01*
X337977D01*
X349973D02*
Y44500D01*
X352972D01*
X353972Y45500D01*
Y49498D01*
X352972Y50498D01*
X349973D01*
X355971Y48499D02*
Y44500D01*
Y46499D01*
X356971Y47499D01*
X357970Y48499D01*
X358970D01*
X361969Y44500D02*
X363968D01*
X362969D01*
Y48499D01*
X361969D01*
X366967D02*
X368967Y44500D01*
X370966Y48499D01*
X375964Y44500D02*
X373965D01*
X372965Y45500D01*
Y47499D01*
X373965Y48499D01*
X375964D01*
X376964Y47499D01*
Y46499D01*
X372965D01*
X378963Y48499D02*
Y44500D01*
Y46499D01*
X379963Y47499D01*
X380963Y48499D01*
X381962D01*
X537500Y250498D02*
Y244500D01*
X541499D01*
X547497Y250498D02*
X543498D01*
Y244500D01*
X547497D01*
X543498Y247499D02*
X545497D01*
X549496Y250498D02*
Y244500D01*
X552495D01*
X553495Y245500D01*
Y249498D01*
X552495Y250498D01*
X549496D01*
X555494Y243500D02*
X559493D01*
X561492Y250498D02*
Y244500D01*
X565491D01*
X536000Y311998D02*
Y306000D01*
X539999D01*
X545997Y311998D02*
X541998D01*
Y306000D01*
X545997D01*
X541998Y308999D02*
X543997D01*
X547996Y311998D02*
Y306000D01*
X550995D01*
X551995Y307000D01*
Y310998D01*
X550995Y311998D01*
X547996D01*
X553994Y305000D02*
X557993D01*
X559992Y306000D02*
Y311998D01*
X563991Y306000D01*
Y311998D01*
X428002Y33500D02*
X434000D01*
Y36499D01*
X433000Y37499D01*
X429002D01*
X428002Y36499D01*
Y33500D01*
Y39498D02*
Y41497D01*
Y40498D01*
X434000D01*
Y39498D01*
Y41497D01*
Y44496D02*
X428002D01*
X430001Y46496D01*
X428002Y48495D01*
X434000D01*
X435000Y50494D02*
Y54493D01*
X428002Y56493D02*
X434000D01*
Y60491D01*
X488002Y32500D02*
X494000D01*
Y35499D01*
X493000Y36499D01*
X489002D01*
X488002Y35499D01*
Y32500D01*
Y38498D02*
Y40497D01*
Y39498D01*
X494000D01*
Y38498D01*
Y40497D01*
Y43496D02*
X488002D01*
X490001Y45496D01*
X488002Y47495D01*
X494000D01*
X495000Y49494D02*
Y53493D01*
X494000Y55493D02*
X488002D01*
X494000Y59491D01*
X488002D01*
X39000Y290000D02*
Y293999D01*
X40999Y295998D01*
X42999Y293999D01*
Y290000D01*
Y292999D01*
X39000D01*
X48997Y294998D02*
X47997Y295998D01*
X45998D01*
X44998Y294998D01*
Y291000D01*
X45998Y290000D01*
X47997D01*
X48997Y291000D01*
X50996Y289000D02*
X54995D01*
X56994Y290000D02*
Y295998D01*
X60993Y290000D01*
Y295998D01*
X40000Y226000D02*
Y229999D01*
X41999Y231998D01*
X43999Y229999D01*
Y226000D01*
Y228999D01*
X40000D01*
X49997Y230998D02*
X48997Y231998D01*
X46998D01*
X45998Y230998D01*
Y227000D01*
X46998Y226000D01*
X48997D01*
X49997Y227000D01*
X51996Y225000D02*
X55995D01*
X57994Y231998D02*
Y226000D01*
X61993D01*
D12*
X364642Y87272D02*
G03*
X364642Y87272I-394J0D01*
G01*
X355390Y93925D02*
G03*
X355390Y93925I-984J0D01*
G01*
X502264Y153650D02*
G03*
X502264Y153650I-984J0D01*
G01*
D13*
X414161Y161685D02*
G03*
X414161Y161685I-492J0D01*
G01*
X212229Y196539D02*
G03*
X212229Y196539I-492J0D01*
G01*
X243894Y243925D02*
G03*
X243894Y243925I-492J0D01*
G01*
X189039Y27555D02*
Y59445D01*
X118961Y27555D02*
Y59445D01*
Y27555D02*
X189039D01*
X118961Y59445D02*
X189039D01*
D14*
X506791Y161524D02*
G03*
X506791Y161524I-591J0D01*
G01*
X44094Y188784D02*
G03*
X44094Y188784I-591J0D01*
G01*
D15*
X376594Y129122D02*
G03*
X376594Y129122I-591J0D01*
G01*
X278445Y131791D02*
G03*
X278445Y131791I-591J0D01*
G01*
D16*
X221677Y190575D02*
G03*
X221677Y190575I-1181J0D01*
G01*
D17*
X85688Y262416D02*
X109311D01*
X85688Y201417D02*
X109311D01*
Y262416D01*
X85688Y201417D02*
Y262416D01*
X85900Y265117D02*
Y267117D01*
X86900D01*
X87233Y266783D01*
Y266117D01*
X86900Y265784D01*
X85900D01*
X86566D02*
X87233Y265117D01*
X87899Y267117D02*
X89232D01*
X88566D01*
Y265117D01*
X89899D02*
X90565D01*
X90232D01*
Y267117D01*
X89899Y266783D01*
X100622Y108831D02*
Y110164D01*
X185957Y64346D02*
X187290D01*
X186623Y65013D02*
Y63680D01*
X410853Y285463D02*
X412186D01*
X493116Y285782D02*
X494448D01*
X493782Y286448D02*
Y285116D01*
X552753Y253976D02*
Y254642D01*
Y254309D01*
X550754D01*
X551087Y253976D01*
X190539Y41568D02*
X191872D01*
X191206Y42235D02*
Y40902D01*
X113986Y41840D02*
X115319D01*
X47656Y283524D02*
Y282858D01*
Y283191D01*
X49656D01*
X49322Y283524D01*
X436976Y44747D02*
X437642D01*
X437309D01*
Y46746D01*
X436976Y46413D01*
X247500Y372999D02*
X248833D01*
X248166D01*
Y371000D01*
X249499D02*
X250166D01*
X249833D01*
Y372999D01*
X249499Y372666D01*
X98564Y170416D02*
X98231Y170750D01*
X97565D01*
X97232Y170416D01*
Y169084D01*
X97565Y168750D01*
X98231D01*
X98564Y169084D01*
X100564Y168750D02*
X99231D01*
X100564Y170083D01*
Y170416D01*
X100231Y170750D01*
X99564D01*
X99231Y170416D01*
X323800Y118725D02*
X324466D01*
X324133D01*
Y116725D01*
X323800D01*
X324466D01*
X326799Y118391D02*
X326466Y118725D01*
X325799D01*
X325466Y118391D01*
Y118058D01*
X325799Y117725D01*
X326466D01*
X326799Y117392D01*
Y117058D01*
X326466Y116725D01*
X325799D01*
X325466Y117058D01*
X328465Y118725D02*
X327799D01*
X327466Y118391D01*
Y117058D01*
X327799Y116725D01*
X328465D01*
X328798Y117058D01*
Y118391D01*
X328465Y118725D01*
X329465Y116725D02*
X330131D01*
X329798D01*
Y118725D01*
X329465Y118391D01*
X155595Y340999D02*
X156928D01*
X156261D01*
Y339000D01*
X157594D02*
Y340999D01*
X158594D01*
X158927Y340666D01*
Y340000D01*
X158594Y339666D01*
X157594D01*
X159593Y339000D02*
X160260D01*
X159927D01*
Y340999D01*
X159593Y340666D01*
X161260D02*
X161593Y340999D01*
X162259D01*
X162592Y340666D01*
Y339333D01*
X162259Y339000D01*
X161593D01*
X161260Y339333D01*
Y340666D01*
X421500Y163999D02*
Y162333D01*
X421833Y162000D01*
X422500D01*
X422833Y162333D01*
Y163999D01*
X423499Y163666D02*
X423833Y163999D01*
X424499D01*
X424832Y163666D01*
Y163333D01*
X424499Y163000D01*
X424166D01*
X424499D01*
X424832Y162666D01*
Y162333D01*
X424499Y162000D01*
X423833D01*
X423499Y162333D01*
X463346Y169999D02*
Y168333D01*
X463680Y168000D01*
X464346D01*
X464679Y168333D01*
Y169999D01*
X466679Y168000D02*
X465346D01*
X466679Y169333D01*
Y169666D01*
X466346Y169999D01*
X465679D01*
X465346Y169666D01*
X203640Y195767D02*
Y194101D01*
X203973Y193768D01*
X204639D01*
X204972Y194101D01*
Y195767D01*
X205639Y193768D02*
X206305D01*
X205972D01*
Y195767D01*
X205639Y195434D01*
X524500Y101253D02*
X525833D01*
X525166D01*
Y99253D01*
X526499D02*
Y101253D01*
X527499D01*
X527832Y100919D01*
Y100253D01*
X527499Y99920D01*
X526499D01*
X528499Y100919D02*
X528832Y101253D01*
X529498D01*
X529832Y100919D01*
Y100586D01*
X529498Y100253D01*
X529165D01*
X529498D01*
X529832Y99920D01*
Y99586D01*
X529498Y99253D01*
X528832D01*
X528499Y99586D01*
X531831Y101253D02*
X530498D01*
Y100253D01*
X531165Y100586D01*
X531498D01*
X531831Y100253D01*
Y99586D01*
X531498Y99253D01*
X530831D01*
X530498Y99586D01*
X554000Y145999D02*
X555333D01*
X554666D01*
Y144000D01*
X555999D02*
Y145999D01*
X556999D01*
X557332Y145666D01*
Y145000D01*
X556999Y144667D01*
X555999D01*
X557999Y145666D02*
X558332Y145999D01*
X558998D01*
X559332Y145666D01*
Y145333D01*
X558998Y145000D01*
X558665D01*
X558998D01*
X559332Y144667D01*
Y144333D01*
X558998Y144000D01*
X558332D01*
X557999Y144333D01*
X560998Y144000D02*
Y145999D01*
X559998Y145000D01*
X561331D01*
X408000Y41999D02*
X409333D01*
X408666D01*
Y40000D01*
X409999D02*
Y41999D01*
X410999D01*
X411332Y41666D01*
Y40999D01*
X410999Y40666D01*
X409999D01*
X411998Y41666D02*
X412332Y41999D01*
X412998D01*
X413331Y41666D01*
Y41333D01*
X412998Y40999D01*
X412665D01*
X412998D01*
X413331Y40666D01*
Y40333D01*
X412998Y40000D01*
X412332D01*
X411998Y40333D01*
X413998Y41666D02*
X414331Y41999D01*
X414997D01*
X415331Y41666D01*
Y41333D01*
X414997Y40999D01*
X414664D01*
X414997D01*
X415331Y40666D01*
Y40333D01*
X414997Y40000D01*
X414331D01*
X413998Y40333D01*
X391776Y58499D02*
X393109D01*
X392442D01*
Y56500D01*
X393775D02*
Y58499D01*
X394775D01*
X395108Y58166D01*
Y57500D01*
X394775Y57166D01*
X393775D01*
X395774Y58166D02*
X396108Y58499D01*
X396774D01*
X397107Y58166D01*
Y57833D01*
X396774Y57500D01*
X396441D01*
X396774D01*
X397107Y57166D01*
Y56833D01*
X396774Y56500D01*
X396108D01*
X395774Y56833D01*
X399107Y56500D02*
X397774D01*
X399107Y57833D01*
Y58166D01*
X398773Y58499D01*
X398107D01*
X397774Y58166D01*
X393000Y201999D02*
X394333D01*
X393666D01*
Y200000D01*
X394999D02*
Y201999D01*
X395999D01*
X396332Y201666D01*
Y200999D01*
X395999Y200666D01*
X394999D01*
X396998Y201666D02*
X397332Y201999D01*
X397998D01*
X398331Y201666D01*
Y201333D01*
X397998Y200999D01*
X397665D01*
X397998D01*
X398331Y200666D01*
Y200333D01*
X397998Y200000D01*
X397332D01*
X396998Y200333D01*
X398998Y200000D02*
X399664D01*
X399331D01*
Y201999D01*
X398998Y201666D01*
X478232Y181000D02*
X479565D01*
X478899D01*
Y179000D01*
X480232D02*
Y181000D01*
X481231D01*
X481565Y180666D01*
Y180000D01*
X481231Y179667D01*
X480232D01*
X482231Y180666D02*
X482564Y181000D01*
X483231D01*
X483564Y180666D01*
Y180333D01*
X483231Y180000D01*
X482897D01*
X483231D01*
X483564Y179667D01*
Y179333D01*
X483231Y179000D01*
X482564D01*
X482231Y179333D01*
X484230Y180666D02*
X484563Y181000D01*
X485230D01*
X485563Y180666D01*
Y179333D01*
X485230Y179000D01*
X484563D01*
X484230Y179333D01*
Y180666D01*
X484406Y104499D02*
X485738D01*
X485072D01*
Y102500D01*
X486405D02*
Y104499D01*
X487404D01*
X487738Y104166D01*
Y103500D01*
X487404Y103166D01*
X486405D01*
X489737Y102500D02*
X488404D01*
X489737Y103833D01*
Y104166D01*
X489404Y104499D01*
X488737D01*
X488404Y104166D01*
X490404Y102833D02*
X490737Y102500D01*
X491403D01*
X491737Y102833D01*
Y104166D01*
X491403Y104499D01*
X490737D01*
X490404Y104166D01*
Y103833D01*
X490737Y103500D01*
X491737D01*
X462291Y133499D02*
X463624D01*
X462958D01*
Y131500D01*
X464291D02*
Y133499D01*
X465290D01*
X465624Y133166D01*
Y132500D01*
X465290Y132167D01*
X464291D01*
X467623Y131500D02*
X466290D01*
X467623Y132833D01*
Y133166D01*
X467290Y133499D01*
X466623D01*
X466290Y133166D01*
X468289D02*
X468623Y133499D01*
X469289D01*
X469622Y133166D01*
Y132833D01*
X469289Y132500D01*
X469622Y132167D01*
Y131833D01*
X469289Y131500D01*
X468623D01*
X468289Y131833D01*
Y132167D01*
X468623Y132500D01*
X468289Y132833D01*
Y133166D01*
X468623Y132500D02*
X469289D01*
X459075Y179594D02*
X460408D01*
X459741D01*
Y177594D01*
X461074D02*
Y179594D01*
X462074D01*
X462407Y179261D01*
Y178594D01*
X462074Y178261D01*
X461074D01*
X464406Y177594D02*
X463073D01*
X464406Y178927D01*
Y179261D01*
X464073Y179594D01*
X463407D01*
X463073Y179261D01*
X465073Y179594D02*
X466406D01*
Y179261D01*
X465073Y177928D01*
Y177594D01*
X553500Y195999D02*
X554833D01*
X554166D01*
Y194000D01*
X555499D02*
Y195999D01*
X556499D01*
X556832Y195666D01*
Y195000D01*
X556499Y194667D01*
X555499D01*
X558832Y194000D02*
X557499D01*
X558832Y195333D01*
Y195666D01*
X558498Y195999D01*
X557832D01*
X557499Y195666D01*
X560831Y195999D02*
X560164Y195666D01*
X559498Y195000D01*
Y194333D01*
X559831Y194000D01*
X560498D01*
X560831Y194333D01*
Y194667D01*
X560498Y195000D01*
X559498D01*
X501000Y181000D02*
X502333D01*
X501666D01*
Y179000D01*
X502999D02*
Y181000D01*
X503999D01*
X504332Y180666D01*
Y180000D01*
X503999Y179667D01*
X502999D01*
X506332Y179000D02*
X504999D01*
X506332Y180333D01*
Y180666D01*
X505998Y181000D01*
X505332D01*
X504999Y180666D01*
X508331Y181000D02*
X506998D01*
Y180000D01*
X507664Y180333D01*
X507998D01*
X508331Y180000D01*
Y179333D01*
X507998Y179000D01*
X507331D01*
X506998Y179333D01*
X429500Y128754D02*
X430833D01*
X430166D01*
Y126755D01*
X431499D02*
Y128754D01*
X432499D01*
X432832Y128421D01*
Y127754D01*
X432499Y127421D01*
X431499D01*
X434832Y126755D02*
X433499D01*
X434832Y128087D01*
Y128421D01*
X434498Y128754D01*
X433832D01*
X433499Y128421D01*
X436498Y126755D02*
Y128754D01*
X435498Y127754D01*
X436831D01*
X457500Y195499D02*
X458833D01*
X458166D01*
Y193500D01*
X459499D02*
Y195499D01*
X460499D01*
X460832Y195166D01*
Y194500D01*
X460499Y194167D01*
X459499D01*
X462832Y193500D02*
X461499D01*
X462832Y194833D01*
Y195166D01*
X462498Y195499D01*
X461832D01*
X461499Y195166D01*
X463498D02*
X463831Y195499D01*
X464498D01*
X464831Y195166D01*
Y194833D01*
X464498Y194500D01*
X464164D01*
X464498D01*
X464831Y194167D01*
Y193833D01*
X464498Y193500D01*
X463831D01*
X463498Y193833D01*
X261500Y107500D02*
X262833D01*
X262167D01*
Y105500D01*
X263500D02*
Y107500D01*
X264499D01*
X264833Y107167D01*
Y106500D01*
X264499Y106167D01*
X263500D01*
X266832Y105500D02*
X265499D01*
X266832Y106833D01*
Y107167D01*
X266499Y107500D01*
X265832D01*
X265499Y107167D01*
X268831Y105500D02*
X267498D01*
X268831Y106833D01*
Y107167D01*
X268498Y107500D01*
X267832D01*
X267498Y107167D01*
X187284Y203094D02*
X188617D01*
X187950D01*
Y201094D01*
X189283D02*
Y203094D01*
X190283D01*
X190616Y202760D01*
Y202094D01*
X190283Y201761D01*
X189283D01*
X192615Y201094D02*
X191282D01*
X192615Y202427D01*
Y202760D01*
X192282Y203094D01*
X191616D01*
X191282Y202760D01*
X193282Y201094D02*
X193948D01*
X193615D01*
Y203094D01*
X193282Y202760D01*
X311500Y130999D02*
X312833D01*
X312166D01*
Y129000D01*
X313499D02*
Y130999D01*
X314499D01*
X314832Y130666D01*
Y129999D01*
X314499Y129666D01*
X313499D01*
X316831Y129000D02*
X315498D01*
X316831Y130333D01*
Y130666D01*
X316498Y130999D01*
X315832D01*
X315498Y130666D01*
X317498D02*
X317831Y130999D01*
X318497D01*
X318831Y130666D01*
Y129333D01*
X318497Y129000D01*
X317831D01*
X317498Y129333D01*
Y130666D01*
X204159Y116594D02*
X205491D01*
X204825D01*
Y114594D01*
X206158D02*
Y116594D01*
X207158D01*
X207491Y116261D01*
Y115594D01*
X207158Y115261D01*
X206158D01*
X208157Y114594D02*
X208824D01*
X208490D01*
Y116594D01*
X208157Y116261D01*
X209823D02*
X210157Y116594D01*
X210823D01*
X211156Y116261D01*
Y115927D01*
X210823Y115594D01*
X211156Y115261D01*
Y114928D01*
X210823Y114594D01*
X210157D01*
X209823Y114928D01*
Y115261D01*
X210157Y115594D01*
X209823Y115927D01*
Y116261D01*
X210157Y115594D02*
X210823D01*
X179079Y219086D02*
X180412D01*
X179745D01*
Y217087D01*
X181078D02*
Y219086D01*
X182078D01*
X182411Y218753D01*
Y218086D01*
X182078Y217753D01*
X181078D01*
X183077Y217087D02*
X183744D01*
X183411D01*
Y219086D01*
X183077Y218753D01*
X184744Y219086D02*
X186076D01*
Y218753D01*
X184744Y217420D01*
Y217087D01*
X245709Y183645D02*
X247042D01*
X246375D01*
Y181646D01*
X247708D02*
Y183645D01*
X248708D01*
X249041Y183312D01*
Y182646D01*
X248708Y182312D01*
X247708D01*
X249708Y181646D02*
X250374D01*
X250041D01*
Y183645D01*
X249708Y183312D01*
X252707Y183645D02*
X252040Y183312D01*
X251374Y182646D01*
Y181979D01*
X251707Y181646D01*
X252374D01*
X252707Y181979D01*
Y182312D01*
X252374Y182646D01*
X251374D01*
X291548Y158000D02*
X292881D01*
X292214D01*
Y156000D01*
X293547D02*
Y158000D01*
X294547D01*
X294880Y157667D01*
Y157000D01*
X294547Y156667D01*
X293547D01*
X295547Y156000D02*
X296213D01*
X295880D01*
Y158000D01*
X295547Y157667D01*
X298546Y158000D02*
X297213D01*
Y157000D01*
X297879Y157333D01*
X298212D01*
X298546Y157000D01*
Y156333D01*
X298212Y156000D01*
X297546D01*
X297213Y156333D01*
X151005Y222397D02*
Y223730D01*
Y223064D01*
X153005D01*
Y224397D02*
X151005D01*
Y225396D01*
X151338Y225730D01*
X152005D01*
X152338Y225396D01*
Y224397D01*
X153005Y226396D02*
Y227063D01*
Y226729D01*
X151005D01*
X151338Y226396D01*
X153005Y229062D02*
X151005D01*
X152005Y228062D01*
Y229395D01*
X305898Y224456D02*
X307231D01*
X306565D01*
Y222457D01*
X307898D02*
Y224456D01*
X308897D01*
X309231Y224123D01*
Y223456D01*
X308897Y223123D01*
X307898D01*
X309897Y222457D02*
X310564D01*
X310230D01*
Y224456D01*
X309897Y224123D01*
X312896Y222457D02*
X311563D01*
X312896Y223790D01*
Y224123D01*
X312563Y224456D01*
X311896D01*
X311563Y224123D01*
X435500Y238000D02*
X436833D01*
X436167D01*
Y236000D01*
X437500D02*
Y238000D01*
X438499D01*
X438833Y237666D01*
Y237000D01*
X438499Y236667D01*
X437500D01*
X439499Y236334D02*
X439832Y236000D01*
X440499D01*
X440832Y236334D01*
Y237666D01*
X440499Y238000D01*
X439832D01*
X439499Y237666D01*
Y237333D01*
X439832Y237000D01*
X440832D01*
X84500Y53999D02*
X85833D01*
X85166D01*
Y52000D01*
X86499D02*
Y53999D01*
X87499D01*
X87832Y53666D01*
Y52999D01*
X87499Y52666D01*
X86499D01*
X88498Y53666D02*
X88832Y53999D01*
X89498D01*
X89831Y53666D01*
Y53333D01*
X89498Y52999D01*
X89831Y52666D01*
Y52333D01*
X89498Y52000D01*
X88832D01*
X88498Y52333D01*
Y52666D01*
X88832Y52999D01*
X88498Y53333D01*
Y53666D01*
X88832Y52999D02*
X89498D01*
X514363Y279500D02*
Y280833D01*
Y280166D01*
X516362D01*
Y281499D02*
X514363D01*
Y282499D01*
X514696Y282832D01*
X515363D01*
X515696Y282499D01*
Y281499D01*
X514363Y284832D02*
X514696Y284165D01*
X515363Y283499D01*
X516029D01*
X516362Y283832D01*
Y284498D01*
X516029Y284832D01*
X515696D01*
X515363Y284498D01*
Y283499D01*
X227800Y296582D02*
X229133D01*
X228466D01*
Y294583D01*
X229799D02*
Y296582D01*
X230799D01*
X231132Y296249D01*
Y295582D01*
X230799Y295249D01*
X229799D01*
X233132Y296582D02*
X231799D01*
Y295582D01*
X232465Y295916D01*
X232798D01*
X233132Y295582D01*
Y294916D01*
X232798Y294583D01*
X232132D01*
X231799Y294916D01*
X562000Y227499D02*
X563333D01*
X562666D01*
Y225500D01*
X563999D02*
Y227499D01*
X564999D01*
X565332Y227166D01*
Y226500D01*
X564999Y226166D01*
X563999D01*
X566998Y225500D02*
Y227499D01*
X565999Y226500D01*
X567332D01*
X403500Y368000D02*
X404833D01*
X404167D01*
Y366000D01*
X405500D02*
Y368000D01*
X406499D01*
X406833Y367666D01*
Y367000D01*
X406499Y366667D01*
X405500D01*
X407499Y367666D02*
X407832Y368000D01*
X408499D01*
X408832Y367666D01*
Y367333D01*
X408499Y367000D01*
X408166D01*
X408499D01*
X408832Y366667D01*
Y366334D01*
X408499Y366000D01*
X407832D01*
X407499Y366334D01*
X221500Y372999D02*
X222833D01*
X222166D01*
Y371000D01*
X223499D02*
Y372999D01*
X224499D01*
X224832Y372666D01*
Y372000D01*
X224499Y371666D01*
X223499D01*
X226832Y371000D02*
X225499D01*
X226832Y372333D01*
Y372666D01*
X226498Y372999D01*
X225832D01*
X225499Y372666D01*
X203844Y106594D02*
X205176D01*
X204510D01*
Y104595D01*
X205843D02*
Y106594D01*
X206843D01*
X207176Y106261D01*
Y105594D01*
X206843Y105261D01*
X205843D01*
X207842Y104595D02*
X208509D01*
X208175D01*
Y106594D01*
X207842Y106261D01*
X436000Y70999D02*
X437333D01*
X436666D01*
Y69000D01*
X437999Y70999D02*
Y69000D01*
X438999D01*
X439332Y69333D01*
Y69666D01*
X438999Y70000D01*
X437999D01*
X438999D01*
X439332Y70333D01*
Y70666D01*
X438999Y70999D01*
X437999D01*
X439999Y70666D02*
X440332Y70999D01*
X440998D01*
X441332Y70666D01*
Y70333D01*
X440998Y70000D01*
X440665D01*
X440998D01*
X441332Y69666D01*
Y69333D01*
X440998Y69000D01*
X440332D01*
X439999Y69333D01*
X523004Y302999D02*
X524337D01*
X523670D01*
Y301000D01*
X525003Y302999D02*
Y301000D01*
X526003D01*
X526336Y301333D01*
Y301666D01*
X526003Y302000D01*
X525003D01*
X526003D01*
X526336Y302333D01*
Y302666D01*
X526003Y302999D01*
X525003D01*
X528336Y301000D02*
X527003D01*
X528336Y302333D01*
Y302666D01*
X528002Y302999D01*
X527336D01*
X527003Y302666D01*
X46409Y287999D02*
X47742D01*
X47076D01*
Y286000D01*
X48409Y287999D02*
Y286000D01*
X49409D01*
X49742Y286333D01*
Y286666D01*
X49409Y287000D01*
X48409D01*
X49409D01*
X49742Y287333D01*
Y287666D01*
X49409Y287999D01*
X48409D01*
X50408Y286000D02*
X51075D01*
X50741D01*
Y287999D01*
X50408Y287666D01*
X478232Y229500D02*
Y231499D01*
X479232D01*
X479565Y231166D01*
Y230500D01*
X479232Y230166D01*
X478232D01*
X478899D02*
X479565Y229500D01*
X481231D02*
Y231499D01*
X480232Y230500D01*
X481565D01*
X483231Y229500D02*
Y231499D01*
X482231Y230500D01*
X483564D01*
X516500Y228827D02*
Y230826D01*
X517500D01*
X517833Y230493D01*
Y229826D01*
X517500Y229493D01*
X516500D01*
X517166D02*
X517833Y228827D01*
X519499D02*
Y230826D01*
X518499Y229826D01*
X519832D01*
X520499Y230493D02*
X520832Y230826D01*
X521498D01*
X521832Y230493D01*
Y230160D01*
X521498Y229826D01*
X521165D01*
X521498D01*
X521832Y229493D01*
Y229160D01*
X521498Y228827D01*
X520832D01*
X520499Y229160D01*
X455094Y96100D02*
Y98099D01*
X456094D01*
X456427Y97766D01*
Y97100D01*
X456094Y96766D01*
X455094D01*
X455761D02*
X456427Y96100D01*
X458094D02*
Y98099D01*
X457094Y97100D01*
X458427D01*
X459093Y97766D02*
X459426Y98099D01*
X460093D01*
X460426Y97766D01*
Y96433D01*
X460093Y96100D01*
X459426D01*
X459093Y96433D01*
Y97766D01*
X512791Y345500D02*
Y347499D01*
X513791D01*
X514124Y347166D01*
Y346500D01*
X513791Y346166D01*
X512791D01*
X513458D02*
X514124Y345500D01*
X514791Y347166D02*
X515124Y347499D01*
X515790D01*
X516124Y347166D01*
Y346833D01*
X515790Y346500D01*
X515457D01*
X515790D01*
X516124Y346166D01*
Y345833D01*
X515790Y345500D01*
X515124D01*
X514791Y345833D01*
X516790Y347166D02*
X517123Y347499D01*
X517790D01*
X518123Y347166D01*
Y346833D01*
X517790Y346500D01*
X518123Y346166D01*
Y345833D01*
X517790Y345500D01*
X517123D01*
X516790Y345833D01*
Y346166D01*
X517123Y346500D01*
X516790Y346833D01*
Y347166D01*
X517123Y346500D02*
X517790D01*
X223673Y359000D02*
Y360999D01*
X224673D01*
X225006Y360666D01*
Y360000D01*
X224673Y359666D01*
X223673D01*
X224340D02*
X225006Y359000D01*
X225673Y360666D02*
X226006Y360999D01*
X226672D01*
X227006Y360666D01*
Y360333D01*
X226672Y360000D01*
X226339D01*
X226672D01*
X227006Y359666D01*
Y359333D01*
X226672Y359000D01*
X226006D01*
X225673Y359333D01*
X227672Y360999D02*
X229005D01*
Y360666D01*
X227672Y359333D01*
Y359000D01*
X205000Y295000D02*
Y296999D01*
X206000D01*
X206333Y296666D01*
Y296000D01*
X206000Y295666D01*
X205000D01*
X205666D02*
X206333Y295000D01*
X206999Y296666D02*
X207333Y296999D01*
X207999D01*
X208332Y296666D01*
Y296333D01*
X207999Y296000D01*
X207666D01*
X207999D01*
X208332Y295666D01*
Y295333D01*
X207999Y295000D01*
X207333D01*
X206999Y295333D01*
X210332Y296999D02*
X209665Y296666D01*
X208999Y296000D01*
Y295333D01*
X209332Y295000D01*
X209998D01*
X210332Y295333D01*
Y295666D01*
X209998Y296000D01*
X208999D01*
X479500Y369799D02*
Y371799D01*
X480500D01*
X480833Y371465D01*
Y370799D01*
X480500Y370466D01*
X479500D01*
X480166D02*
X480833Y369799D01*
X481499Y371465D02*
X481833Y371799D01*
X482499D01*
X482832Y371465D01*
Y371132D01*
X482499Y370799D01*
X482166D01*
X482499D01*
X482832Y370466D01*
Y370132D01*
X482499Y369799D01*
X481833D01*
X481499Y370132D01*
X484498Y369799D02*
Y371799D01*
X483499Y370799D01*
X484832D01*
X539000Y139906D02*
Y141905D01*
X540000D01*
X540333Y141572D01*
Y140905D01*
X540000Y140572D01*
X539000D01*
X539667D02*
X540333Y139906D01*
X541000Y141572D02*
X541333Y141905D01*
X541999D01*
X542332Y141572D01*
Y141238D01*
X541999Y140905D01*
X541666D01*
X541999D01*
X542332Y140572D01*
Y140239D01*
X541999Y139906D01*
X541333D01*
X541000Y140239D01*
X542999Y141572D02*
X543332Y141905D01*
X543998D01*
X544332Y141572D01*
Y141238D01*
X543998Y140905D01*
X543665D01*
X543998D01*
X544332Y140572D01*
Y140239D01*
X543998Y139906D01*
X543332D01*
X542999Y140239D01*
X439018Y162500D02*
Y164499D01*
X440017D01*
X440350Y164166D01*
Y163500D01*
X440017Y163166D01*
X439018D01*
X439684D02*
X440350Y162500D01*
X441017Y164166D02*
X441350Y164499D01*
X442017D01*
X442350Y164166D01*
Y163833D01*
X442017Y163500D01*
X441683D01*
X442017D01*
X442350Y163166D01*
Y162833D01*
X442017Y162500D01*
X441350D01*
X441017Y162833D01*
X444349Y162500D02*
X443016D01*
X444349Y163833D01*
Y164166D01*
X444016Y164499D01*
X443350D01*
X443016Y164166D01*
X412400Y96494D02*
Y98493D01*
X413400D01*
X413733Y98160D01*
Y97494D01*
X413400Y97161D01*
X412400D01*
X413066D02*
X413733Y96494D01*
X414399Y98160D02*
X414732Y98493D01*
X415399D01*
X415732Y98160D01*
Y97827D01*
X415399Y97494D01*
X415066D01*
X415399D01*
X415732Y97161D01*
Y96827D01*
X415399Y96494D01*
X414732D01*
X414399Y96827D01*
X416398Y96494D02*
X417065D01*
X416732D01*
Y98493D01*
X416398Y98160D01*
X490142Y87500D02*
Y89499D01*
X491141D01*
X491475Y89166D01*
Y88500D01*
X491141Y88166D01*
X490142D01*
X490808D02*
X491475Y87500D01*
X492141Y89166D02*
X492474Y89499D01*
X493141D01*
X493474Y89166D01*
Y88833D01*
X493141Y88500D01*
X492807D01*
X493141D01*
X493474Y88166D01*
Y87833D01*
X493141Y87500D01*
X492474D01*
X492141Y87833D01*
X494140Y89166D02*
X494474Y89499D01*
X495140D01*
X495473Y89166D01*
Y87833D01*
X495140Y87500D01*
X494474D01*
X494140Y87833D01*
Y89166D01*
X461500Y229500D02*
Y231499D01*
X462500D01*
X462833Y231166D01*
Y230500D01*
X462500Y230166D01*
X461500D01*
X462166D02*
X462833Y229500D01*
X464832D02*
X463499D01*
X464832Y230833D01*
Y231166D01*
X464499Y231499D01*
X463833D01*
X463499Y231166D01*
X465499Y229833D02*
X465832Y229500D01*
X466498D01*
X466832Y229833D01*
Y231166D01*
X466498Y231499D01*
X465832D01*
X465499Y231166D01*
Y230833D01*
X465832Y230500D01*
X466832D01*
X464700Y208900D02*
Y210899D01*
X465700D01*
X466033Y210566D01*
Y209900D01*
X465700Y209566D01*
X464700D01*
X465366D02*
X466033Y208900D01*
X468032D02*
X466699D01*
X468032Y210233D01*
Y210566D01*
X467699Y210899D01*
X467033D01*
X466699Y210566D01*
X468699D02*
X469032Y210899D01*
X469698D01*
X470032Y210566D01*
Y210233D01*
X469698Y209900D01*
X470032Y209566D01*
Y209233D01*
X469698Y208900D01*
X469032D01*
X468699Y209233D01*
Y209566D01*
X469032Y209900D01*
X468699Y210233D01*
Y210566D01*
X469032Y209900D02*
X469698D01*
X373803Y221556D02*
Y223555D01*
X374802D01*
X375136Y223222D01*
Y222555D01*
X374802Y222222D01*
X373803D01*
X374469D02*
X375136Y221556D01*
X377135D02*
X375802D01*
X377135Y222888D01*
Y223222D01*
X376802Y223555D01*
X376135D01*
X375802Y223222D01*
X377801Y223555D02*
X379134D01*
Y223222D01*
X377801Y221889D01*
Y221556D01*
X464500Y90799D02*
Y92799D01*
X465500D01*
X465833Y92465D01*
Y91799D01*
X465500Y91466D01*
X464500D01*
X465166D02*
X465833Y90799D01*
X467832D02*
X466499D01*
X467832Y92132D01*
Y92465D01*
X467499Y92799D01*
X466833D01*
X466499Y92465D01*
X469832Y92799D02*
X469165Y92465D01*
X468499Y91799D01*
Y91132D01*
X468832Y90799D01*
X469498D01*
X469832Y91132D01*
Y91466D01*
X469498Y91799D01*
X468499D01*
X411900Y146800D02*
Y148799D01*
X412900D01*
X413233Y148466D01*
Y147800D01*
X412900Y147467D01*
X411900D01*
X412566D02*
X413233Y146800D01*
X415232D02*
X413899D01*
X415232Y148133D01*
Y148466D01*
X414899Y148799D01*
X414233D01*
X413899Y148466D01*
X417232Y148799D02*
X415899D01*
Y147800D01*
X416565Y148133D01*
X416898D01*
X417232Y147800D01*
Y147133D01*
X416898Y146800D01*
X416232D01*
X415899Y147133D01*
X492000Y216425D02*
Y218425D01*
X493000D01*
X493333Y218092D01*
Y217425D01*
X493000Y217092D01*
X492000D01*
X492666D02*
X493333Y216425D01*
X495332D02*
X493999D01*
X495332Y217758D01*
Y218092D01*
X494999Y218425D01*
X494333D01*
X493999Y218092D01*
X496998Y216425D02*
Y218425D01*
X495999Y217425D01*
X497332D01*
X451500Y162500D02*
Y164499D01*
X452500D01*
X452833Y164166D01*
Y163500D01*
X452500Y163166D01*
X451500D01*
X452166D02*
X452833Y162500D01*
X454832D02*
X453499D01*
X454832Y163833D01*
Y164166D01*
X454499Y164499D01*
X453833D01*
X453499Y164166D01*
X455499D02*
X455832Y164499D01*
X456498D01*
X456832Y164166D01*
Y163833D01*
X456498Y163500D01*
X456165D01*
X456498D01*
X456832Y163166D01*
Y162833D01*
X456498Y162500D01*
X455832D01*
X455499Y162833D01*
X537000Y174500D02*
Y176499D01*
X538000D01*
X538333Y176166D01*
Y175500D01*
X538000Y175166D01*
X537000D01*
X537666D02*
X538333Y174500D01*
X540332D02*
X538999D01*
X540332Y175833D01*
Y176166D01*
X539999Y176499D01*
X539333D01*
X538999Y176166D01*
X542332Y174500D02*
X540999D01*
X542332Y175833D01*
Y176166D01*
X541998Y176499D01*
X541332D01*
X540999Y176166D01*
X503500Y216500D02*
Y218499D01*
X504500D01*
X504833Y218166D01*
Y217500D01*
X504500Y217166D01*
X503500D01*
X504166D02*
X504833Y216500D01*
X506832D02*
X505499D01*
X506832Y217833D01*
Y218166D01*
X506499Y218499D01*
X505833D01*
X505499Y218166D01*
X507499D02*
X507832Y218499D01*
X508498D01*
X508832Y218166D01*
Y216833D01*
X508498Y216500D01*
X507832D01*
X507499Y216833D01*
Y218166D01*
X437500Y193500D02*
Y195499D01*
X438500D01*
X438833Y195166D01*
Y194500D01*
X438500Y194167D01*
X437500D01*
X438166D02*
X438833Y193500D01*
X439499D02*
X440166D01*
X439833D01*
Y195499D01*
X439499Y195166D01*
X441165Y193833D02*
X441499Y193500D01*
X442165D01*
X442498Y193833D01*
Y195166D01*
X442165Y195499D01*
X441499D01*
X441165Y195166D01*
Y194833D01*
X441499Y194500D01*
X442498D01*
X532500Y194000D02*
Y195999D01*
X533500D01*
X533833Y195666D01*
Y195000D01*
X533500Y194667D01*
X532500D01*
X533166D02*
X533833Y194000D01*
X534499D02*
X535166D01*
X534833D01*
Y195999D01*
X534499Y195666D01*
X536166Y195999D02*
X537498D01*
Y195666D01*
X536166Y194333D01*
Y194000D01*
X526500Y206500D02*
Y208499D01*
X527500D01*
X527833Y208166D01*
Y207500D01*
X527500Y207166D01*
X526500D01*
X527166D02*
X527833Y206500D01*
X528499D02*
X529166D01*
X528833D01*
Y208499D01*
X528499Y208166D01*
X531498Y208499D02*
X530832Y208166D01*
X530165Y207500D01*
Y206833D01*
X530499Y206500D01*
X531165D01*
X531498Y206833D01*
Y207166D01*
X531165Y207500D01*
X530165D01*
X479425Y131000D02*
Y132999D01*
X480425D01*
X480758Y132666D01*
Y132000D01*
X480425Y131667D01*
X479425D01*
X480092D02*
X480758Y131000D01*
X481425D02*
X482091D01*
X481758D01*
Y132999D01*
X481425Y132666D01*
X484424Y132999D02*
X483091D01*
Y132000D01*
X483757Y132333D01*
X484090D01*
X484424Y132000D01*
Y131333D01*
X484090Y131000D01*
X483424D01*
X483091Y131333D01*
X215500Y155000D02*
Y156999D01*
X216500D01*
X216833Y156666D01*
Y156000D01*
X216500Y155666D01*
X215500D01*
X216166D02*
X216833Y155000D01*
X217499D02*
X218166D01*
X217833D01*
Y156999D01*
X217499Y156666D01*
X220165Y155000D02*
Y156999D01*
X219165Y156000D01*
X220498D01*
X146600Y327300D02*
Y329299D01*
X147600D01*
X147933Y328966D01*
Y328300D01*
X147600Y327966D01*
X146600D01*
X147266D02*
X147933Y327300D01*
X149932Y329299D02*
X149266Y328966D01*
X148599Y328300D01*
Y327633D01*
X148933Y327300D01*
X149599D01*
X149932Y327633D01*
Y327966D01*
X149599Y328300D01*
X148599D01*
X495000Y250500D02*
Y252499D01*
X496000D01*
X496333Y252166D01*
Y251500D01*
X496000Y251166D01*
X495000D01*
X495666D02*
X496333Y250500D01*
X498332Y252499D02*
X496999D01*
Y251500D01*
X497666Y251833D01*
X497999D01*
X498332Y251500D01*
Y250833D01*
X497999Y250500D01*
X497333D01*
X496999Y250833D01*
X63110Y75354D02*
X61111D01*
Y76354D01*
X61444Y76687D01*
X62111D01*
X62444Y76354D01*
Y75354D01*
Y76021D02*
X63110Y76687D01*
X61444Y77354D02*
X61111Y77687D01*
Y78353D01*
X61444Y78687D01*
X61777D01*
X62111Y78353D01*
Y78020D01*
Y78353D01*
X62444Y78687D01*
X62777D01*
X63110Y78353D01*
Y77687D01*
X62777Y77354D01*
X28240Y76492D02*
X26241D01*
Y77492D01*
X26574Y77825D01*
X27240D01*
X27574Y77492D01*
Y76492D01*
Y77159D02*
X28240Y77825D01*
Y78491D02*
Y79158D01*
Y78825D01*
X26241D01*
X26574Y78491D01*
X183192Y258933D02*
Y260266D01*
X182858Y260599D01*
X182192D01*
X181859Y260266D01*
Y258933D01*
X182192Y258600D01*
X182858D01*
X182525Y259266D02*
X183192Y258600D01*
X182858D02*
X183192Y258933D01*
X183858Y258600D02*
X184524D01*
X184191D01*
Y260599D01*
X183858Y260266D01*
X72833Y352999D02*
X71500D01*
Y352000D01*
X72166D01*
X71500D01*
Y351000D01*
X73499D02*
X74166D01*
X73833D01*
Y352999D01*
X73499Y352666D01*
X506350Y354999D02*
Y353000D01*
X507350D01*
X507683Y353333D01*
Y354666D01*
X507350Y354999D01*
X506350D01*
X509683Y353000D02*
X508350D01*
X509683Y354333D01*
Y354666D01*
X509349Y354999D01*
X508683D01*
X508350Y354666D01*
X39852Y231999D02*
Y230000D01*
X40852D01*
X41185Y230333D01*
Y231666D01*
X40852Y231999D01*
X39852D01*
X41851Y230000D02*
X42518D01*
X42185D01*
Y231999D01*
X41851Y231666D01*
X508833Y127465D02*
X508500Y127799D01*
X507833D01*
X507500Y127465D01*
Y126132D01*
X507833Y125799D01*
X508500D01*
X508833Y126132D01*
X509500Y125799D02*
X510166D01*
X509833D01*
Y127799D01*
X509500Y127465D01*
X511166Y125799D02*
X511832D01*
X511499D01*
Y127799D01*
X511166Y127465D01*
X421833Y371859D02*
X421500Y372192D01*
X420833D01*
X420500Y371859D01*
Y370526D01*
X420833Y370193D01*
X421500D01*
X421833Y370526D01*
X422499Y370193D02*
X423166D01*
X422833D01*
Y372192D01*
X422499Y371859D01*
X424165D02*
X424499Y372192D01*
X425165D01*
X425498Y371859D01*
Y370526D01*
X425165Y370193D01*
X424499D01*
X424165Y370526D01*
Y371859D01*
X404833Y189666D02*
X404500Y189999D01*
X403833D01*
X403500Y189666D01*
Y188333D01*
X403833Y188000D01*
X404500D01*
X404833Y188333D01*
X405499D02*
X405833Y188000D01*
X406499D01*
X406832Y188333D01*
Y189666D01*
X406499Y189999D01*
X405833D01*
X405499Y189666D01*
Y189333D01*
X405833Y189000D01*
X406832D01*
X425735Y195666D02*
X425401Y195999D01*
X424735D01*
X424402Y195666D01*
Y194333D01*
X424735Y194000D01*
X425401D01*
X425735Y194333D01*
X426401Y195666D02*
X426734Y195999D01*
X427401D01*
X427734Y195666D01*
Y195333D01*
X427401Y195000D01*
X427734Y194667D01*
Y194333D01*
X427401Y194000D01*
X426734D01*
X426401Y194333D01*
Y194667D01*
X426734Y195000D01*
X426401Y195333D01*
Y195666D01*
X426734Y195000D02*
X427401D01*
X228676Y157072D02*
X228343Y157405D01*
X227676D01*
X227343Y157072D01*
Y155739D01*
X227676Y155405D01*
X228343D01*
X228676Y155739D01*
X229342Y157405D02*
X230675D01*
Y157072D01*
X229342Y155739D01*
Y155405D01*
X244014Y157071D02*
X243681Y157404D01*
X243014D01*
X242681Y157071D01*
Y155738D01*
X243014Y155405D01*
X243681D01*
X244014Y155738D01*
X246013Y157404D02*
X245347Y157071D01*
X244681Y156405D01*
Y155738D01*
X245014Y155405D01*
X245680D01*
X246013Y155738D01*
Y156072D01*
X245680Y156405D01*
X244681D01*
X416333Y323666D02*
X416000Y323999D01*
X415333D01*
X415000Y323666D01*
Y322333D01*
X415333Y322000D01*
X416000D01*
X416333Y322333D01*
X417999Y322000D02*
Y323999D01*
X416999Y323000D01*
X418332D01*
X114333Y60666D02*
X114000Y60999D01*
X113333D01*
X113000Y60666D01*
Y59333D01*
X113333Y59000D01*
X114000D01*
X114333Y59333D01*
X114999Y59000D02*
X115666D01*
X115333D01*
Y60999D01*
X114999Y60666D01*
D18*
X256012Y230012D02*
Y368988D01*
X394791D01*
Y230012D02*
Y368988D01*
X256012Y230012D02*
X394791Y230012D01*
D19*
X337477Y111425D02*
X359524D01*
X337477Y86425D02*
Y111425D01*
Y86425D02*
X359524D01*
Y111425D01*
D20*
X476929Y339000D02*
X496614D01*
X417087D02*
X436772D01*
X437559Y350024D02*
X476142D01*
X437559Y327976D02*
Y350024D01*
X476142Y327976D02*
Y350024D01*
X437559Y327976D02*
X476142D01*
X428535Y357079D02*
X432866D01*
X428535Y366921D02*
X432866D01*
X453035Y357201D02*
X469965D01*
X453035Y369799D02*
X469965D01*
X515350Y331138D02*
Y335862D01*
X521650Y331138D02*
Y335862D01*
X561350Y255250D02*
X565150D01*
Y298866D01*
X561350Y255250D02*
Y257134D01*
X534268D02*
X561350D01*
X565150D02*
X567732D01*
X534268D02*
Y298866D01*
X567732Y257134D02*
Y298866D01*
X534268D02*
X567732D01*
X492535Y234701D02*
X509465D01*
X492535Y247299D02*
X509465D01*
X464850Y215638D02*
Y220362D01*
X471150Y215638D02*
Y220362D01*
X476657Y215638D02*
Y220362D01*
X482957Y215638D02*
Y220362D01*
X488850Y202638D02*
Y207362D01*
X495150Y202638D02*
Y207362D01*
X500350Y202638D02*
Y207362D01*
X506650Y202638D02*
Y207362D01*
X512350Y214937D02*
Y219661D01*
X518650Y214937D02*
Y219661D01*
X518138Y203150D02*
X522862D01*
X518138Y196850D02*
X522862D01*
X523339Y190586D02*
X528063D01*
X523339Y184287D02*
X528063D01*
X533650Y168638D02*
Y173362D01*
X527350Y168638D02*
Y173362D01*
X426850Y179835D02*
Y184165D01*
X433150Y179835D02*
Y184165D01*
X445138Y183850D02*
X449862D01*
X445138Y190150D02*
X449862D01*
X419083Y148791D02*
Y160209D01*
X416917Y148791D02*
Y160209D01*
X419083D01*
X416917Y148791D02*
X419083D01*
X460650Y148138D02*
Y152862D01*
X454350Y148138D02*
Y152862D01*
X548299Y113678D02*
Y130607D01*
X535701Y113678D02*
Y130607D01*
X518150Y111830D02*
Y116161D01*
X511850Y111830D02*
Y116161D01*
X484150Y117138D02*
Y121862D01*
X477850Y117138D02*
Y121862D01*
X451350Y82138D02*
Y86862D01*
X457650Y82138D02*
Y86862D01*
X468709Y76638D02*
Y81362D01*
X475008Y76638D02*
Y81362D01*
X480350Y76638D02*
Y81362D01*
X486650Y76638D02*
Y81362D01*
X30583Y92728D02*
Y158870D01*
X53417D01*
X30583Y92728D02*
X53417D01*
X42000Y88398D02*
Y92728D01*
Y158870D02*
Y163201D01*
X53417Y92728D02*
Y158870D01*
X86417Y92283D02*
Y158425D01*
X63583Y92283D02*
X86417D01*
X63583Y158425D02*
X86417D01*
X75000D02*
Y162756D01*
Y87953D02*
Y92283D01*
X63583D02*
Y158425D01*
X121250Y269750D02*
Y367250D01*
X80750D02*
X121250D01*
X80750Y269750D02*
Y367250D01*
Y269750D02*
X121250D01*
X35259Y282250D02*
X39059D01*
X35259Y238634D02*
Y282250D01*
X39059Y280366D02*
Y282250D01*
Y280366D02*
X66142D01*
X32677D02*
X35259D01*
X66142Y238634D02*
Y280366D01*
X32677Y238634D02*
Y280366D01*
Y238634D02*
X66142D01*
X232138Y349350D02*
X236862D01*
X232138Y355650D02*
X236862D01*
X211638Y291650D02*
X216362D01*
X211638Y285350D02*
X216362D01*
X372461Y134831D02*
X376594D01*
X388405D02*
X392539D01*
X362224Y145067D02*
Y175776D01*
X376201D01*
X362224Y145067D02*
X372461Y134831D01*
X388799Y175776D02*
X402776D01*
Y145067D02*
Y175776D01*
X392539Y134831D02*
X402776Y145067D01*
X235150Y141114D02*
Y145445D01*
X228850Y141114D02*
Y145445D01*
X217350Y140917D02*
Y145642D01*
X223650Y140917D02*
Y145642D01*
X249508Y124508D02*
X269980D01*
X249508D02*
Y132579D01*
Y142421D02*
Y150492D01*
X270374D01*
X275886Y144980D01*
Y142224D02*
Y144980D01*
X269980Y124508D02*
X275887Y130414D01*
Y132776D01*
X216559Y171677D02*
Y194512D01*
X229158Y171677D02*
Y194512D01*
X216559D02*
X229158D01*
X216559Y171677D02*
X229158D01*
X449150Y148138D02*
Y152862D01*
X442850Y148138D02*
Y152862D01*
X438250Y32350D02*
Y36150D01*
Y32350D02*
X481866D01*
X438250Y36150D02*
X440134D01*
Y63232D01*
Y29768D02*
Y32350D01*
Y63232D02*
X481866D01*
X440134Y29768D02*
X481866D01*
Y63232D01*
X472839Y197350D02*
X477563D01*
X472839Y203650D02*
X477563D01*
X424012Y105339D02*
Y133291D01*
X412988D02*
X424012D01*
X412988Y105339D02*
X424012D01*
X412988D02*
Y133291D01*
X384327Y217468D02*
X412279D01*
X384327Y206445D02*
Y217468D01*
X412279Y206445D02*
Y217468D01*
X384327Y206445D02*
X412279D01*
X424512Y55024D02*
Y82976D01*
X413488D02*
X424512D01*
X413488Y55024D02*
X424512D01*
X413488D02*
Y82976D01*
X183559Y233886D02*
X246158D01*
X183559D02*
Y253965D01*
X246158D01*
Y233886D02*
Y253965D01*
X183559Y237035D02*
X246158D01*
X173417Y244236D02*
Y310378D01*
X162000D02*
Y314709D01*
Y239906D02*
Y244236D01*
X150583D02*
X173417D01*
X150583Y310378D02*
X173417D01*
X150583Y244236D02*
Y310378D01*
D21*
X465512Y144201D02*
X504488D01*
X465512D02*
Y156799D01*
X504488Y144201D02*
Y156799D01*
X465512D02*
X504488D01*
X41535Y194689D02*
X76575D01*
X41535Y217917D02*
X76575D01*
X41535Y194689D02*
Y217917D01*
X76575Y194689D02*
Y217917D01*
D22*
X271165Y37332D02*
X269999Y38498D01*
X267666D01*
X266500Y37332D01*
Y32666D01*
X267666Y31500D01*
X269999D01*
X271165Y32666D01*
X273498Y38498D02*
Y31500D01*
Y34999D01*
X274664Y36165D01*
X276997D01*
X278163Y34999D01*
Y31500D01*
X280496D02*
X282828D01*
X281662D01*
Y36165D01*
X280496D01*
X286327Y31500D02*
Y36165D01*
X289826D01*
X290992Y34999D01*
Y31500D01*
X293325D02*
Y36165D01*
X294491D01*
X295657Y34999D01*
Y31500D01*
Y34999D01*
X296824Y36165D01*
X297990Y34999D01*
Y31500D01*
X301489Y36165D02*
X303821D01*
X304988Y34999D01*
Y31500D01*
X301489D01*
X300322Y32666D01*
X301489Y33833D01*
X304988D01*
X307320Y36165D02*
Y32666D01*
X308486Y31500D01*
X311985D01*
Y30334D01*
X310819Y29167D01*
X309653D01*
X311985Y31500D02*
Y36165D01*
X321316Y31500D02*
Y38498D01*
X324815D01*
X325981Y37332D01*
Y34999D01*
X324815Y33833D01*
X321316D01*
X329480Y36165D02*
X331812D01*
X332979Y34999D01*
Y31500D01*
X329480D01*
X328313Y32666D01*
X329480Y33833D01*
X332979D01*
X336477Y37332D02*
Y36165D01*
X335311D01*
X337644D01*
X336477D01*
Y32666D01*
X337644Y31500D01*
X341143D02*
X343475D01*
X342309D01*
Y36165D01*
X341143D01*
X346974Y31500D02*
X349307D01*
X348140D01*
Y38498D01*
X346974D01*
X272165Y61731D02*
X270999Y62898D01*
X268666D01*
X267500Y61731D01*
Y57066D01*
X268666Y55900D01*
X270999D01*
X272165Y57066D01*
X274498Y62898D02*
Y57066D01*
X275664Y55900D01*
X277997D01*
X279163Y57066D01*
Y62898D01*
X288493D02*
Y55900D01*
X291992D01*
X293158Y57066D01*
Y58233D01*
X291992Y59399D01*
X288493D01*
X291992D01*
X293158Y60565D01*
Y61731D01*
X291992Y62898D01*
X288493D01*
X296657Y55900D02*
X298990D01*
X300156Y57066D01*
Y59399D01*
X298990Y60565D01*
X296657D01*
X295491Y59399D01*
Y57066D01*
X296657Y55900D01*
X302489Y60565D02*
Y57066D01*
X303655Y55900D01*
X307154D01*
Y60565D01*
X309486Y55900D02*
X311819D01*
X310653D01*
Y62898D01*
X309486D01*
X319983D02*
Y55900D01*
X316484D01*
X315318Y57066D01*
Y59399D01*
X316484Y60565D01*
X319983D01*
X325815Y55900D02*
X323482D01*
X322316Y57066D01*
Y59399D01*
X323482Y60565D01*
X325815D01*
X326981Y59399D01*
Y58233D01*
X322316D01*
X329313Y60565D02*
Y55900D01*
Y58233D01*
X330480Y59399D01*
X331646Y60565D01*
X332812D01*
D23*
X473189Y339000D02*
D03*
M02*
