G04*
G04 #@! TF.GenerationSoftware,Altium Limited,Altium Designer,18.1.7 (191)*
G04*
G04 Layer_Color=8421504*
%FSLAX25Y25*%
%MOIN*%
G70*
G01*
G75*
%ADD24R,0.14961X0.07992*%
%ADD25R,0.05315X0.11024*%
%ADD26R,0.05118X0.13780*%
%ADD27R,0.07284X0.04921*%
%ADD28R,0.07992X0.14961*%
%ADD29R,0.04921X0.07284*%
%ADD30R,0.07480X0.05315*%
%ADD31R,0.03937X0.02559*%
%ADD32R,0.02559X0.06890*%
%ADD33R,0.13780X0.05118*%
%ADD34R,0.09055X0.19095*%
%ADD35R,0.13583X0.07087*%
%ADD36R,0.06496X0.02559*%
%ADD37R,0.05118X0.06693*%
D24*
X162505Y221256D02*
D03*
X410000Y360000D02*
D03*
X552000Y230500D02*
D03*
X450500Y232500D02*
D03*
X546500Y187436D02*
D03*
X505500Y187500D02*
D03*
X487000Y187500D02*
D03*
X468000Y187436D02*
D03*
X449500Y175000D02*
D03*
X515000Y96000D02*
D03*
X438500Y120500D02*
D03*
X479807Y96500D02*
D03*
X93500Y45500D02*
D03*
X236500Y368000D02*
D03*
X235500Y288500D02*
D03*
X382500Y196500D02*
D03*
X304858Y215956D02*
D03*
X302359Y149500D02*
D03*
X212859Y98094D02*
D03*
X272500Y114000D02*
D03*
X301500Y125500D02*
D03*
X212844Y123094D02*
D03*
X191078Y225500D02*
D03*
X256209Y175221D02*
D03*
X402776Y50000D02*
D03*
X418000Y33500D02*
D03*
D25*
X424402Y362000D02*
D03*
X437000D02*
D03*
D26*
X473902Y363500D02*
D03*
X449098D02*
D03*
X513402Y241000D02*
D03*
X488598D02*
D03*
D27*
X518500Y327201D02*
D03*
Y339799D02*
D03*
X468000Y211701D02*
D03*
Y224299D02*
D03*
X479807Y211701D02*
D03*
Y224299D02*
D03*
X492000Y198701D02*
D03*
Y211299D02*
D03*
X503500Y198701D02*
D03*
Y211299D02*
D03*
X515500Y211000D02*
D03*
Y223598D02*
D03*
X530500Y177299D02*
D03*
Y164701D02*
D03*
X457500Y156799D02*
D03*
Y144201D02*
D03*
X481000Y125799D02*
D03*
Y113201D02*
D03*
X454500Y78201D02*
D03*
Y90799D02*
D03*
X471858Y72701D02*
D03*
Y85299D02*
D03*
X483500Y72701D02*
D03*
Y85299D02*
D03*
X220500Y136980D02*
D03*
Y149579D02*
D03*
X446000Y156799D02*
D03*
Y144201D02*
D03*
D28*
X522862Y288500D02*
D03*
X558000Y134000D02*
D03*
X468901Y121500D02*
D03*
X161500Y329000D02*
D03*
X200358Y209595D02*
D03*
D29*
X514201Y200000D02*
D03*
X526799D02*
D03*
X519402Y187437D02*
D03*
X532000D02*
D03*
X453799Y187000D02*
D03*
X441201D02*
D03*
X240799Y352500D02*
D03*
X228201D02*
D03*
X207701Y288500D02*
D03*
X220299D02*
D03*
X481500Y200500D02*
D03*
X468902D02*
D03*
D30*
X430000Y175701D02*
D03*
Y188299D02*
D03*
X515000Y120295D02*
D03*
Y107696D02*
D03*
X232000Y149579D02*
D03*
Y136980D02*
D03*
D31*
X422331Y154500D02*
D03*
X413669Y150760D02*
D03*
Y158240D02*
D03*
D32*
X502500Y161524D02*
D03*
X497500D02*
D03*
X492500D02*
D03*
X487500D02*
D03*
X482500D02*
D03*
X477500D02*
D03*
X472500D02*
D03*
X467500D02*
D03*
X502500Y139476D02*
D03*
X497500D02*
D03*
X492500D02*
D03*
X487500D02*
D03*
X482500D02*
D03*
X477500D02*
D03*
X472500D02*
D03*
X467500D02*
D03*
D33*
X542000Y134544D02*
D03*
Y109740D02*
D03*
D34*
X382500Y137390D02*
D03*
Y173610D02*
D03*
D35*
X272342Y137500D02*
D03*
X252658D02*
D03*
D36*
X211736Y190969D02*
D03*
Y187031D02*
D03*
Y183095D02*
D03*
Y179157D02*
D03*
Y175221D02*
D03*
X233981Y190969D02*
D03*
Y183095D02*
D03*
Y179157D02*
D03*
Y175221D02*
D03*
D37*
X69488Y189295D02*
D03*
X49016D02*
D03*
X69488Y223705D02*
D03*
X49016D02*
D03*
M02*
