G04*
G04 #@! TF.GenerationSoftware,Altium Limited,Altium Designer,18.1.7 (191)*
G04*
G04 Layer_Color=8388736*
%FSLAX25Y25*%
%MOIN*%
G70*
G01*
G75*
%ADD38R,0.15761X0.08792*%
%ADD39R,0.06115X0.11824*%
%ADD40R,0.05918X0.14580*%
%ADD41R,0.08083X0.05721*%
%ADD42R,0.08792X0.15761*%
%ADD43R,0.05721X0.08083*%
%ADD44R,0.08280X0.06115*%
%ADD45R,0.04737X0.03359*%
%ADD46R,0.03359X0.07690*%
%ADD47R,0.14580X0.05918*%
%ADD48R,0.09855X0.19894*%
%ADD49R,0.14383X0.07887*%
%ADD50R,0.07296X0.03359*%
%ADD51R,0.05918X0.07493*%
%ADD52C,0.06800*%
%ADD53R,0.06800X0.06800*%
%ADD54C,0.09200*%
%ADD55C,0.11627*%
%ADD56R,0.11627X0.11627*%
%ADD57C,0.14186*%
%ADD58C,0.06312*%
%ADD59R,0.06312X0.06312*%
%ADD60C,0.10642*%
%ADD61R,0.10642X0.10642*%
%ADD62C,0.08400*%
%ADD63R,0.08400X0.08400*%
%ADD64R,0.09200X0.09200*%
%ADD65C,0.07400*%
%ADD66R,0.07400X0.07400*%
%ADD67R,0.08300X0.08300*%
%ADD68C,0.08300*%
%ADD69C,0.09800*%
%ADD70R,0.09800X0.09800*%
%ADD71R,0.09200X0.09200*%
%ADD72R,0.07296X0.07296*%
%ADD73C,0.07296*%
%ADD74R,0.07296X0.07296*%
%ADD75C,0.10839*%
%ADD76R,0.10839X0.10839*%
%ADD77C,0.15750*%
%ADD78C,0.05800*%
D38*
X162505Y221256D02*
D03*
X410000Y360000D02*
D03*
X552000Y230500D02*
D03*
X450500Y232500D02*
D03*
X546500Y187436D02*
D03*
X505500Y187500D02*
D03*
X487000Y187500D02*
D03*
X468000Y187436D02*
D03*
X449500Y175000D02*
D03*
X515000Y96000D02*
D03*
X438500Y120500D02*
D03*
X479807Y96500D02*
D03*
X93500Y45500D02*
D03*
X236500Y368000D02*
D03*
X235500Y288500D02*
D03*
X382500Y196500D02*
D03*
X304858Y215956D02*
D03*
X302359Y149500D02*
D03*
X212859Y98094D02*
D03*
X272500Y114000D02*
D03*
X301500Y125500D02*
D03*
X212844Y123094D02*
D03*
X191078Y225500D02*
D03*
X256209Y175221D02*
D03*
X402776Y50000D02*
D03*
X418000Y33500D02*
D03*
D39*
X424402Y362000D02*
D03*
X437000D02*
D03*
D40*
X473902Y363500D02*
D03*
X449098D02*
D03*
X513402Y241000D02*
D03*
X488598D02*
D03*
D41*
X518500Y327201D02*
D03*
Y339799D02*
D03*
X468000Y211701D02*
D03*
Y224299D02*
D03*
X479807Y211701D02*
D03*
Y224299D02*
D03*
X492000Y198701D02*
D03*
Y211299D02*
D03*
X503500Y198701D02*
D03*
Y211299D02*
D03*
X515500Y211000D02*
D03*
Y223598D02*
D03*
X530500Y177299D02*
D03*
Y164701D02*
D03*
X457500Y156799D02*
D03*
Y144201D02*
D03*
X481000Y125799D02*
D03*
Y113201D02*
D03*
X454500Y78201D02*
D03*
Y90799D02*
D03*
X471858Y72701D02*
D03*
Y85299D02*
D03*
X483500Y72701D02*
D03*
Y85299D02*
D03*
X220500Y136980D02*
D03*
Y149579D02*
D03*
X446000Y156799D02*
D03*
Y144201D02*
D03*
D42*
X522862Y288500D02*
D03*
X558000Y134000D02*
D03*
X468901Y121500D02*
D03*
X161500Y329000D02*
D03*
X200358Y209595D02*
D03*
D43*
X514201Y200000D02*
D03*
X526799D02*
D03*
X519402Y187437D02*
D03*
X532000D02*
D03*
X453799Y187000D02*
D03*
X441201D02*
D03*
X240799Y352500D02*
D03*
X228201D02*
D03*
X207701Y288500D02*
D03*
X220299D02*
D03*
X481500Y200500D02*
D03*
X468902D02*
D03*
D44*
X430000Y175701D02*
D03*
Y188299D02*
D03*
X515000Y120295D02*
D03*
Y107696D02*
D03*
X232000Y149579D02*
D03*
Y136980D02*
D03*
D45*
X422331Y154500D02*
D03*
X413669Y150760D02*
D03*
Y158240D02*
D03*
D46*
X502500Y161524D02*
D03*
X497500D02*
D03*
X492500D02*
D03*
X487500D02*
D03*
X482500D02*
D03*
X477500D02*
D03*
X472500D02*
D03*
X467500D02*
D03*
X502500Y139476D02*
D03*
X497500D02*
D03*
X492500D02*
D03*
X487500D02*
D03*
X482500D02*
D03*
X477500D02*
D03*
X472500D02*
D03*
X467500D02*
D03*
D47*
X542000Y134544D02*
D03*
Y109740D02*
D03*
D48*
X382500Y137390D02*
D03*
Y173610D02*
D03*
D49*
X272342Y137500D02*
D03*
X252658D02*
D03*
D50*
X211736Y190969D02*
D03*
Y187031D02*
D03*
Y183095D02*
D03*
Y179157D02*
D03*
Y175221D02*
D03*
X233981Y190969D02*
D03*
Y183095D02*
D03*
Y179157D02*
D03*
Y175221D02*
D03*
D51*
X69488Y189295D02*
D03*
X49016D02*
D03*
X69488Y223705D02*
D03*
X49016D02*
D03*
D52*
X97500Y246681D02*
D03*
D53*
Y217154D02*
D03*
D54*
X49409Y249500D02*
D03*
X551000Y288000D02*
D03*
X471000Y46500D02*
D03*
D55*
X375500Y239500D02*
D03*
Y259500D02*
D03*
Y279500D02*
D03*
Y319500D02*
D03*
Y339500D02*
D03*
Y359500D02*
D03*
D03*
X275500Y239500D02*
D03*
Y259500D02*
D03*
Y279500D02*
D03*
Y299500D02*
D03*
Y319500D02*
D03*
Y339500D02*
D03*
D56*
Y359500D02*
D03*
D57*
X168431Y110850D02*
D03*
X129569Y117150D02*
D03*
D58*
X328500Y93925D02*
D03*
Y103925D02*
D03*
X368500D02*
D03*
D59*
Y93925D02*
D03*
D60*
X410000Y339000D02*
D03*
D61*
X503701D02*
D03*
D62*
X440236Y288500D02*
D03*
D63*
X469764D02*
D03*
D64*
X551000Y268000D02*
D03*
X49409Y269500D02*
D03*
D65*
X124472Y43500D02*
D03*
D66*
X183528D02*
D03*
D67*
X42000Y82492D02*
D03*
X75000Y168661D02*
D03*
X162000Y234000D02*
D03*
D68*
X42000Y169106D02*
D03*
X75000Y82047D02*
D03*
X162000Y320614D02*
D03*
X117000Y189500D02*
D03*
X172000Y315000D02*
D03*
X242000Y306000D02*
D03*
X232902Y342098D02*
D03*
X195000Y290000D02*
D03*
D69*
X101000Y275500D02*
D03*
D70*
Y361500D02*
D03*
D71*
X451000Y46500D02*
D03*
D72*
X418500Y139000D02*
D03*
X419000Y88685D02*
D03*
D73*
X418500Y99630D02*
D03*
X417988Y211956D02*
D03*
X419000Y49315D02*
D03*
D74*
X378618Y211956D02*
D03*
D75*
X193362Y246000D02*
D03*
X214859D02*
D03*
D76*
X236355D02*
D03*
D77*
X575000Y25000D02*
D03*
Y375000D02*
D03*
X25000Y25000D02*
D03*
Y375000D02*
D03*
D78*
X552000Y210000D02*
D03*
X430000Y154500D02*
D03*
X513000Y153500D02*
D03*
X217116Y166095D02*
D03*
X191252Y187031D02*
D03*
X201158Y179095D02*
D03*
X211035Y225000D02*
D03*
X260500Y189000D02*
D03*
X244158Y179441D02*
D03*
X288500Y125500D02*
D03*
X242500Y149500D02*
D03*
X163701Y198854D02*
D03*
X315413Y149500D02*
D03*
X266922Y183095D02*
D03*
X238071Y125354D02*
D03*
X252858Y165421D02*
D03*
X461500Y104000D02*
D03*
X453500Y128000D02*
D03*
X513500Y135500D02*
D03*
X494781Y97219D02*
D03*
X433500Y108500D02*
D03*
X436461Y144461D02*
D03*
X440317Y85201D02*
D03*
X542000Y86000D02*
D03*
X482500Y171563D02*
D03*
X304359Y207095D02*
D03*
M02*
