G04*
G04 #@! TF.GenerationSoftware,Altium Limited,Altium Designer,18.1.7 (191)*
G04*
G04 Layer_Physical_Order=2*
G04 Layer_Color=16711680*
%FSLAX25Y25*%
%MOIN*%
G70*
G01*
G75*
%ADD11C,0.01000*%
%ADD22C,0.02000*%
%ADD26R,0.05118X0.13780*%
%ADD27R,0.07284X0.04921*%
%ADD29R,0.04921X0.07284*%
%ADD33R,0.13780X0.05118*%
%ADD62C,0.08400*%
%ADD63R,0.08400X0.08400*%
%ADD79C,0.05000*%
%ADD81C,0.06000*%
%ADD82R,0.06000X0.06000*%
%ADD83C,0.10827*%
%ADD84R,0.10827X0.10827*%
%ADD85C,0.13386*%
%ADD86C,0.05512*%
%ADD87R,0.05512X0.05512*%
%ADD88C,0.09843*%
%ADD89R,0.09843X0.09843*%
%ADD90C,0.07600*%
%ADD91R,0.07600X0.07600*%
%ADD92R,0.08400X0.08400*%
%ADD93C,0.06600*%
%ADD94R,0.06600X0.06600*%
%ADD95R,0.07500X0.07500*%
%ADD96C,0.07500*%
%ADD97C,0.09000*%
%ADD98R,0.09000X0.09000*%
%ADD99R,0.06496X0.06496*%
%ADD100C,0.06496*%
%ADD101R,0.06496X0.06496*%
%ADD102C,0.10039*%
%ADD103R,0.10039X0.10039*%
%ADD104C,0.14950*%
%ADD105C,0.05000*%
%ADD106R,0.04921X0.05906*%
%ADD107R,0.09055X0.10039*%
%ADD108R,0.11024X0.05315*%
%ADD109R,0.10039X0.09055*%
%ADD110R,0.12795X0.10236*%
%ADD111R,0.06102X0.05315*%
G36*
X145542Y249978D02*
X145069D01*
Y250521D01*
X145542D01*
Y249978D01*
D02*
G37*
G36*
X143578Y249525D02*
X143611Y249522D01*
X143651Y249515D01*
X143694Y249508D01*
X143744Y249498D01*
X143794Y249488D01*
X143847Y249472D01*
X143901Y249455D01*
X143954Y249432D01*
X144004Y249405D01*
X144057Y249375D01*
X144104Y249338D01*
X144147Y249299D01*
X144150Y249295D01*
X144157Y249289D01*
X144167Y249275D01*
X144184Y249255D01*
X144200Y249232D01*
X144217Y249202D01*
X144237Y249165D01*
X144260Y249125D01*
X144280Y249075D01*
X144300Y249025D01*
X144317Y248966D01*
X144337Y248902D01*
X144350Y248832D01*
X144360Y248759D01*
X144367Y248676D01*
X144370Y248589D01*
Y246681D01*
X143897D01*
Y248433D01*
Y248436D01*
Y248446D01*
Y248459D01*
Y248479D01*
Y248503D01*
X143894Y248529D01*
X143891Y248589D01*
X143887Y248656D01*
X143877Y248722D01*
X143867Y248786D01*
X143857Y248816D01*
X143851Y248839D01*
X143847Y248846D01*
X143841Y248859D01*
X143831Y248882D01*
X143814Y248912D01*
X143791Y248945D01*
X143761Y248979D01*
X143727Y249012D01*
X143684Y249042D01*
X143677Y249045D01*
X143664Y249055D01*
X143638Y249065D01*
X143604Y249082D01*
X143561Y249095D01*
X143514Y249105D01*
X143461Y249115D01*
X143401Y249119D01*
X143375D01*
X143351Y249115D01*
X143328Y249112D01*
X143298Y249109D01*
X143265Y249102D01*
X143231Y249095D01*
X143155Y249072D01*
X143115Y249055D01*
X143071Y249035D01*
X143032Y249012D01*
X142991Y248989D01*
X142952Y248955D01*
X142915Y248922D01*
X142912Y248919D01*
X142908Y248912D01*
X142898Y248902D01*
X142885Y248886D01*
X142872Y248862D01*
X142855Y248839D01*
X142835Y248806D01*
X142818Y248769D01*
X142802Y248729D01*
X142782Y248682D01*
X142765Y248633D01*
X142752Y248576D01*
X142738Y248513D01*
X142732Y248446D01*
X142725Y248373D01*
X142722Y248296D01*
Y246681D01*
X142249D01*
Y248489D01*
Y248493D01*
Y248503D01*
Y248519D01*
X142246Y248539D01*
Y248566D01*
X142242Y248596D01*
X142236Y248666D01*
X142219Y248742D01*
X142199Y248819D01*
X142172Y248892D01*
X142152Y248929D01*
X142132Y248959D01*
Y248962D01*
X142126Y248966D01*
X142109Y248986D01*
X142082Y249009D01*
X142043Y249039D01*
X141992Y249069D01*
X141926Y249095D01*
X141889Y249105D01*
X141849Y249112D01*
X141803Y249115D01*
X141756Y249119D01*
X141723D01*
X141706Y249115D01*
X141683Y249112D01*
X141636Y249105D01*
X141580Y249092D01*
X141516Y249075D01*
X141450Y249049D01*
X141386Y249012D01*
X141383D01*
X141380Y249009D01*
X141360Y248992D01*
X141330Y248969D01*
X141293Y248936D01*
X141253Y248892D01*
X141213Y248839D01*
X141177Y248776D01*
X141143Y248706D01*
Y248702D01*
X141140Y248696D01*
X141137Y248686D01*
X141133Y248669D01*
X141127Y248646D01*
X141120Y248622D01*
X141113Y248592D01*
X141107Y248556D01*
X141100Y248519D01*
X141093Y248476D01*
X141087Y248426D01*
X141080Y248373D01*
X141077Y248320D01*
X141073Y248256D01*
X141070Y248193D01*
Y248123D01*
Y246681D01*
X140597D01*
Y249465D01*
X141020D01*
Y249075D01*
X141027Y249082D01*
X141033Y249092D01*
X141043Y249105D01*
X141073Y249145D01*
X141113Y249192D01*
X141163Y249242D01*
X141220Y249299D01*
X141290Y249352D01*
X141367Y249402D01*
X141370D01*
X141376Y249408D01*
X141390Y249415D01*
X141406Y249422D01*
X141426Y249432D01*
X141450Y249442D01*
X141480Y249452D01*
X141510Y249465D01*
X141583Y249488D01*
X141666Y249508D01*
X141763Y249522D01*
X141863Y249528D01*
X141893D01*
X141913Y249525D01*
X141939D01*
X141972Y249522D01*
X142006Y249518D01*
X142043Y249512D01*
X142122Y249498D01*
X142206Y249475D01*
X142292Y249442D01*
X142369Y249398D01*
X142372D01*
X142379Y249392D01*
X142389Y249385D01*
X142402Y249375D01*
X142435Y249345D01*
X142479Y249305D01*
X142522Y249255D01*
X142569Y249192D01*
X142612Y249119D01*
X142648Y249039D01*
X142652Y249045D01*
X142665Y249059D01*
X142682Y249085D01*
X142708Y249115D01*
X142742Y249152D01*
X142782Y249195D01*
X142828Y249238D01*
X142878Y249285D01*
X142938Y249328D01*
X143005Y249375D01*
X143075Y249415D01*
X143151Y249452D01*
X143231Y249482D01*
X143318Y249508D01*
X143411Y249522D01*
X143508Y249528D01*
X143548D01*
X143578Y249525D01*
D02*
G37*
G36*
X136864Y250021D02*
X135329D01*
X135123Y248986D01*
X135126Y248989D01*
X135139Y248995D01*
X135156Y249009D01*
X135183Y249022D01*
X135216Y249042D01*
X135253Y249062D01*
X135296Y249085D01*
X135343Y249109D01*
X135396Y249129D01*
X135452Y249152D01*
X135512Y249172D01*
X135576Y249192D01*
X135642Y249205D01*
X135709Y249219D01*
X135779Y249225D01*
X135849Y249229D01*
X135872D01*
X135899Y249225D01*
X135932Y249222D01*
X135975Y249219D01*
X136025Y249209D01*
X136082Y249199D01*
X136145Y249185D01*
X136208Y249165D01*
X136278Y249142D01*
X136348Y249115D01*
X136418Y249082D01*
X136491Y249042D01*
X136561Y248995D01*
X136631Y248942D01*
X136698Y248879D01*
X136701Y248876D01*
X136714Y248862D01*
X136731Y248842D01*
X136751Y248816D01*
X136778Y248782D01*
X136808Y248739D01*
X136838Y248692D01*
X136871Y248636D01*
X136904Y248576D01*
X136934Y248506D01*
X136964Y248433D01*
X136991Y248353D01*
X137011Y248270D01*
X137031Y248180D01*
X137041Y248083D01*
X137044Y247983D01*
Y247976D01*
Y247960D01*
X137041Y247933D01*
Y247897D01*
X137034Y247850D01*
X137028Y247800D01*
X137018Y247740D01*
X137007Y247677D01*
X136991Y247607D01*
X136971Y247534D01*
X136944Y247460D01*
X136914Y247384D01*
X136881Y247307D01*
X136838Y247231D01*
X136791Y247154D01*
X136738Y247081D01*
X136734Y247074D01*
X136721Y247061D01*
X136701Y247037D01*
X136671Y247007D01*
X136635Y246974D01*
X136588Y246934D01*
X136535Y246891D01*
X136475Y246851D01*
X136408Y246808D01*
X136331Y246764D01*
X136248Y246724D01*
X136158Y246691D01*
X136062Y246661D01*
X135959Y246638D01*
X135849Y246624D01*
X135732Y246618D01*
X135709D01*
X135682Y246621D01*
X135645D01*
X135602Y246628D01*
X135549Y246635D01*
X135492Y246641D01*
X135429Y246655D01*
X135363Y246671D01*
X135292Y246691D01*
X135223Y246714D01*
X135149Y246741D01*
X135079Y246774D01*
X135010Y246814D01*
X134940Y246861D01*
X134876Y246911D01*
X134873Y246914D01*
X134863Y246924D01*
X134846Y246941D01*
X134823Y246964D01*
X134800Y246994D01*
X134770Y247031D01*
X134740Y247071D01*
X134706Y247117D01*
X134673Y247171D01*
X134640Y247231D01*
X134607Y247294D01*
X134580Y247364D01*
X134553Y247437D01*
X134530Y247517D01*
X134513Y247600D01*
X134500Y247690D01*
X134996Y247733D01*
Y247730D01*
X135000Y247717D01*
X135003Y247700D01*
X135006Y247673D01*
X135016Y247643D01*
X135023Y247607D01*
X135036Y247570D01*
X135049Y247527D01*
X135083Y247437D01*
X135126Y247347D01*
X135183Y247260D01*
X135213Y247221D01*
X135249Y247184D01*
X135253Y247181D01*
X135259Y247177D01*
X135269Y247167D01*
X135286Y247157D01*
X135306Y247144D01*
X135326Y247127D01*
X135356Y247111D01*
X135386Y247094D01*
X135456Y247061D01*
X135539Y247031D01*
X135629Y247011D01*
X135679Y247007D01*
X135732Y247004D01*
X135749D01*
X135765Y247007D01*
X135789D01*
X135819Y247011D01*
X135852Y247017D01*
X135892Y247024D01*
X135932Y247037D01*
X135978Y247051D01*
X136025Y247067D01*
X136072Y247087D01*
X136118Y247114D01*
X136168Y247141D01*
X136218Y247177D01*
X136265Y247214D01*
X136308Y247260D01*
X136311Y247264D01*
X136318Y247274D01*
X136331Y247287D01*
X136345Y247307D01*
X136362Y247334D01*
X136381Y247364D01*
X136405Y247400D01*
X136428Y247440D01*
X136448Y247487D01*
X136471Y247540D01*
X136491Y247593D01*
X136508Y247657D01*
X136521Y247720D01*
X136535Y247790D01*
X136541Y247863D01*
X136545Y247940D01*
Y247943D01*
Y247956D01*
Y247980D01*
X136541Y248006D01*
X136538Y248040D01*
X136531Y248080D01*
X136525Y248123D01*
X136518Y248170D01*
X136488Y248273D01*
X136471Y248326D01*
X136448Y248379D01*
X136425Y248429D01*
X136391Y248483D01*
X136358Y248529D01*
X136318Y248576D01*
X136315Y248579D01*
X136308Y248586D01*
X136295Y248599D01*
X136278Y248612D01*
X136255Y248629D01*
X136228Y248649D01*
X136195Y248672D01*
X136158Y248696D01*
X136118Y248716D01*
X136072Y248739D01*
X136025Y248759D01*
X135972Y248776D01*
X135915Y248789D01*
X135855Y248802D01*
X135789Y248809D01*
X135722Y248812D01*
X135686D01*
X135666Y248809D01*
X135642Y248806D01*
X135586Y248799D01*
X135522Y248786D01*
X135452Y248769D01*
X135382Y248742D01*
X135312Y248709D01*
X135309D01*
X135306Y248706D01*
X135296Y248699D01*
X135283Y248689D01*
X135249Y248669D01*
X135209Y248636D01*
X135163Y248599D01*
X135116Y248553D01*
X135069Y248503D01*
X135026Y248443D01*
X134583Y248499D01*
X134956Y250471D01*
X136864D01*
Y250021D01*
D02*
G37*
G36*
X146721Y246681D02*
X146248D01*
Y250521D01*
X146721D01*
Y246681D01*
D02*
G37*
G36*
X145542D02*
X145069D01*
Y249465D01*
X145542D01*
Y246681D01*
D02*
G37*
G36*
X138789Y250531D02*
X138816D01*
X138846Y250527D01*
X138879Y250524D01*
X138919Y250517D01*
X139002Y250504D01*
X139092Y250481D01*
X139185Y250451D01*
X139275Y250407D01*
X139278D01*
X139285Y250401D01*
X139298Y250394D01*
X139315Y250384D01*
X139335Y250371D01*
X139358Y250357D01*
X139412Y250318D01*
X139475Y250264D01*
X139538Y250204D01*
X139602Y250131D01*
X139662Y250048D01*
X139665Y250044D01*
X139668Y250038D01*
X139675Y250024D01*
X139688Y250008D01*
X139698Y249985D01*
X139715Y249958D01*
X139731Y249924D01*
X139748Y249888D01*
X139768Y249851D01*
X139788Y249808D01*
X139808Y249758D01*
X139828Y249708D01*
X139865Y249598D01*
X139901Y249478D01*
Y249475D01*
X139905Y249462D01*
X139908Y249445D01*
X139915Y249418D01*
X139921Y249382D01*
X139928Y249342D01*
X139938Y249295D01*
X139945Y249238D01*
X139951Y249179D01*
X139961Y249109D01*
X139968Y249035D01*
X139974Y248955D01*
X139981Y248869D01*
X139985Y248776D01*
X139988Y248676D01*
Y248572D01*
Y248569D01*
Y248566D01*
Y248556D01*
Y248543D01*
Y248506D01*
X139985Y248459D01*
Y248403D01*
X139981Y248336D01*
X139978Y248263D01*
X139971Y248183D01*
X139964Y248096D01*
X139954Y248010D01*
X139928Y247827D01*
X139915Y247737D01*
X139895Y247647D01*
X139871Y247560D01*
X139848Y247480D01*
Y247477D01*
X139841Y247464D01*
X139835Y247440D01*
X139821Y247414D01*
X139808Y247377D01*
X139788Y247337D01*
X139768Y247294D01*
X139745Y247247D01*
X139685Y247144D01*
X139615Y247037D01*
X139528Y246934D01*
X139482Y246884D01*
X139432Y246841D01*
X139428Y246838D01*
X139418Y246831D01*
X139405Y246821D01*
X139382Y246808D01*
X139355Y246788D01*
X139322Y246771D01*
X139285Y246751D01*
X139242Y246731D01*
X139192Y246708D01*
X139142Y246688D01*
X139082Y246671D01*
X139022Y246655D01*
X138955Y246638D01*
X138886Y246628D01*
X138812Y246621D01*
X138736Y246618D01*
X138712D01*
X138682Y246621D01*
X138643Y246624D01*
X138596Y246631D01*
X138543Y246638D01*
X138483Y246651D01*
X138419Y246668D01*
X138349Y246688D01*
X138279Y246714D01*
X138206Y246744D01*
X138133Y246784D01*
X138060Y246828D01*
X137993Y246881D01*
X137927Y246941D01*
X137863Y247011D01*
X137860Y247017D01*
X137847Y247034D01*
X137830Y247064D01*
X137803Y247104D01*
X137777Y247157D01*
X137743Y247221D01*
X137710Y247297D01*
X137673Y247387D01*
X137637Y247490D01*
X137604Y247604D01*
X137570Y247733D01*
X137544Y247873D01*
X137530Y247950D01*
X137520Y248026D01*
X137510Y248110D01*
X137500Y248196D01*
X137494Y248286D01*
X137487Y248376D01*
X137484Y248473D01*
Y248572D01*
Y248576D01*
Y248579D01*
Y248589D01*
Y248603D01*
Y248639D01*
X137487Y248686D01*
Y248742D01*
X137490Y248809D01*
X137497Y248882D01*
X137500Y248966D01*
X137510Y249049D01*
X137517Y249139D01*
X137544Y249322D01*
X137560Y249412D01*
X137577Y249502D01*
X137600Y249588D01*
X137624Y249668D01*
X137627Y249671D01*
X137630Y249688D01*
X137637Y249708D01*
X137650Y249738D01*
X137663Y249771D01*
X137683Y249811D01*
X137704Y249855D01*
X137727Y249904D01*
X137787Y250008D01*
X137857Y250114D01*
X137943Y250218D01*
X137990Y250264D01*
X138040Y250307D01*
X138043Y250311D01*
X138053Y250318D01*
X138070Y250327D01*
X138090Y250344D01*
X138116Y250361D01*
X138150Y250381D01*
X138186Y250401D01*
X138230Y250421D01*
X138279Y250441D01*
X138333Y250464D01*
X138389Y250481D01*
X138449Y250497D01*
X138516Y250514D01*
X138586Y250524D01*
X138659Y250531D01*
X138736Y250534D01*
X138766D01*
X138789Y250531D01*
D02*
G37*
%LPC*%
G36*
X138729Y250144D02*
X138716D01*
X138699Y250141D01*
X138676D01*
X138649Y250134D01*
X138616Y250131D01*
X138583Y250121D01*
X138543Y250111D01*
X138503Y250094D01*
X138459Y250078D01*
X138416Y250054D01*
X138373Y250028D01*
X138330Y249998D01*
X138289Y249958D01*
X138250Y249918D01*
X138210Y249868D01*
X138206Y249865D01*
X138200Y249851D01*
X138186Y249828D01*
X138173Y249798D01*
X138153Y249758D01*
X138133Y249708D01*
X138113Y249648D01*
X138090Y249575D01*
X138066Y249492D01*
X138047Y249398D01*
X138026Y249292D01*
X138006Y249175D01*
X137993Y249042D01*
X137980Y248899D01*
X137977Y248822D01*
X137973Y248742D01*
X137970Y248659D01*
Y248572D01*
Y248569D01*
Y248563D01*
Y248549D01*
Y248533D01*
Y248509D01*
Y248483D01*
X137973Y248453D01*
Y248419D01*
X137977Y248343D01*
X137983Y248256D01*
X137990Y248163D01*
X137996Y248060D01*
X138010Y247956D01*
X138023Y247850D01*
X138040Y247743D01*
X138063Y247643D01*
X138086Y247547D01*
X138116Y247457D01*
X138150Y247380D01*
X138170Y247344D01*
X138190Y247314D01*
X138193Y247310D01*
X138200Y247301D01*
X138213Y247284D01*
X138230Y247267D01*
X138250Y247240D01*
X138276Y247217D01*
X138306Y247187D01*
X138339Y247161D01*
X138379Y247131D01*
X138419Y247101D01*
X138466Y247077D01*
X138513Y247054D01*
X138566Y247034D01*
X138619Y247017D01*
X138676Y247007D01*
X138736Y247004D01*
X138749D01*
X138766Y247007D01*
X138789Y247011D01*
X138819Y247014D01*
X138849Y247021D01*
X138886Y247031D01*
X138926Y247044D01*
X138965Y247061D01*
X139009Y247081D01*
X139055Y247107D01*
X139102Y247137D01*
X139145Y247171D01*
X139192Y247214D01*
X139235Y247260D01*
X139278Y247317D01*
X139282Y247321D01*
X139288Y247334D01*
X139298Y247354D01*
X139315Y247380D01*
X139332Y247417D01*
X139348Y247467D01*
X139368Y247524D01*
X139392Y247590D01*
X139412Y247670D01*
X139432Y247760D01*
X139448Y247863D01*
X139468Y247980D01*
X139475Y248040D01*
X139482Y248106D01*
X139488Y248176D01*
X139492Y248250D01*
X139495Y248323D01*
X139498Y248403D01*
X139502Y248486D01*
Y248572D01*
Y248576D01*
Y248583D01*
Y248596D01*
Y248612D01*
Y248636D01*
Y248662D01*
X139498Y248692D01*
Y248726D01*
X139495Y248802D01*
X139488Y248889D01*
X139482Y248982D01*
X139475Y249085D01*
X139462Y249189D01*
X139448Y249295D01*
X139428Y249402D01*
X139408Y249502D01*
X139382Y249598D01*
X139352Y249688D01*
X139319Y249765D01*
X139298Y249801D01*
X139278Y249831D01*
X139275Y249835D01*
X139269Y249845D01*
X139255Y249861D01*
X139239Y249881D01*
X139219Y249904D01*
X139192Y249931D01*
X139162Y249958D01*
X139129Y249988D01*
X139089Y250018D01*
X139049Y250044D01*
X139002Y250071D01*
X138955Y250094D01*
X138902Y250114D01*
X138849Y250131D01*
X138789Y250141D01*
X138729Y250144D01*
D02*
G37*
%LPD*%
D11*
X512000Y155000D02*
X552000Y195000D01*
Y210000D01*
X377900Y124600D02*
X401000Y147701D01*
X377900Y124600D02*
X378000Y124500D01*
Y98425D02*
Y124500D01*
X373500Y93925D02*
X378000Y98425D01*
X368500Y93925D02*
X373500D01*
X364647Y107778D02*
X368500Y103925D01*
X328075Y93500D02*
X328500Y93925D01*
X305799Y93500D02*
X328075D01*
X288500Y110799D02*
X305799Y93500D01*
X129569Y117150D02*
X148612Y136193D01*
X126512Y117150D02*
X129569D01*
X75000Y168661D02*
X126512Y117150D01*
X430000Y278264D02*
X440236Y288500D01*
X430000Y154500D02*
Y278264D01*
X513000Y136000D02*
Y153500D01*
X511500Y155000D02*
X513000Y153500D01*
X168431Y110850D02*
Y112350D01*
Y59569D02*
Y110850D01*
X136130Y246681D02*
X138500Y249051D01*
X97500Y246681D02*
X136130D01*
X68000Y307000D02*
X138949D01*
X49409Y288409D02*
X68000Y307000D01*
X49409Y269500D02*
Y288409D01*
X74555Y82492D02*
X75000Y82047D01*
X42000Y82492D02*
X74555D01*
X176000Y136193D02*
X190859D01*
X148612D02*
X176000D01*
X176000Y136193D01*
Y174421D01*
Y187020D02*
X176012Y187031D01*
X191252D01*
X236355Y226401D02*
X237299Y225456D01*
X224244Y225000D02*
X224701Y225456D01*
X211035Y225000D02*
X224244D01*
X213957Y210094D02*
X214500Y210637D01*
X193362Y242673D02*
Y246000D01*
X268150Y221456D02*
X268859Y220748D01*
X248524Y221456D02*
X248724Y221256D01*
X268859Y201850D02*
X268859Y201850D01*
X260500Y186519D02*
Y189000D01*
X244158Y179441D02*
X244760Y180043D01*
X257859Y183878D02*
X260500Y186519D01*
X266500Y125500D02*
X288500D01*
Y110799D02*
Y125500D01*
X242500Y149500D02*
X266500Y125500D01*
X162000Y320614D02*
X162500Y320114D01*
Y292614D02*
Y320114D01*
X172000Y315000D02*
X172598Y315598D01*
X401000Y160299D02*
X417988Y177287D01*
Y211956D01*
X232260Y154595D02*
X235166Y157500D01*
X245814D01*
X245893Y157421D02*
X256172D01*
X245814Y157500D02*
X245893Y157421D01*
X162000Y234000D02*
X163701Y232299D01*
X436833Y88685D02*
X440317Y85201D01*
X419000Y88685D02*
X436833D01*
X129569Y49624D02*
Y117150D01*
X232599Y125354D02*
X238071D01*
X230859Y127094D02*
X232599Y125354D01*
X199957Y127094D02*
X230859D01*
X364647Y107778D02*
Y130756D01*
X302500Y163327D02*
X315413Y150413D01*
Y149500D02*
Y150413D01*
X168431Y59569D02*
X183500Y44500D01*
X124445D02*
X129569Y49624D01*
X282359Y219894D02*
Y226870D01*
X286413Y230925D01*
Y249138D01*
X276051Y259500D02*
X286413Y249138D01*
X275500Y259500D02*
X276051D01*
X257859Y183878D02*
X258359Y183378D01*
Y183095D02*
X266922D01*
X232260Y142098D02*
Y154595D01*
X252858Y169437D02*
X258359Y174937D01*
X256172Y157421D02*
X262444Y163693D01*
X278359D01*
X252858Y165421D02*
Y169437D01*
X460500Y104000D02*
X461500D01*
X453500Y111000D02*
X460500Y104000D01*
X453500Y111000D02*
Y128000D01*
X442134Y100500D02*
X456634Y86000D01*
X542000D01*
X513000Y136000D02*
X513500Y135500D01*
X494781Y97219D02*
Y159281D01*
X433500Y100866D02*
Y108500D01*
Y100866D02*
X433866Y100500D01*
X432996Y99630D02*
X433866Y100500D01*
X418500Y99630D02*
X432996D01*
X364647Y130756D02*
X394191Y160299D01*
X401000D01*
Y117130D02*
X418500Y99630D01*
X401000Y117130D02*
Y147701D01*
X418500Y139000D02*
X431000D01*
X436461Y144461D01*
X482500Y171563D02*
X494781Y159281D01*
X511500Y155000D02*
X512000D01*
X201055Y160996D02*
X207457Y154595D01*
X190859Y160996D02*
X201055D01*
X207457Y140996D02*
Y154595D01*
Y140996D02*
X209859Y138594D01*
X138949Y307000D02*
X139000Y306949D01*
X138500Y287551D02*
X139000Y288051D01*
X138500Y267949D02*
Y287551D01*
X157937Y288051D02*
X162500Y292614D01*
X139000Y288051D02*
X157937D01*
X196000Y313299D02*
X201525D01*
X195000Y299701D02*
X196000Y300701D01*
X192651Y313299D02*
X196000D01*
X304158Y207295D02*
X304359Y207095D01*
X282359Y207295D02*
X304158D01*
X304359Y195768D02*
Y207095D01*
X302359Y193768D02*
X304359Y195768D01*
X283630Y193768D02*
X302359D01*
X278359Y188496D02*
X283630Y193768D01*
X276359Y190496D02*
X278359Y188496D01*
X228756Y138594D02*
X232260Y142098D01*
X190859Y136193D02*
X199957Y127094D01*
X191004Y244000D02*
X191902Y243102D01*
D22*
X209359Y166095D02*
X217116D01*
X236355Y226401D02*
Y246000D01*
X201158Y179095D02*
Y197295D01*
X214500Y210637D02*
Y221535D01*
X211035Y225000D02*
X214500Y221535D01*
X244524Y225456D02*
X248524Y221456D01*
X237299Y225456D02*
X244524D01*
X193362Y242673D02*
X211035Y225000D01*
X256791Y221456D02*
X268150D01*
X248724Y201850D02*
Y221256D01*
X256992Y201850D02*
X268859D01*
X256685Y196619D02*
Y199594D01*
X244760Y184695D02*
X256685Y196619D01*
X244760Y180043D02*
Y184695D01*
X243575Y165421D02*
X252858D01*
X234701Y174295D02*
X243575Y165421D01*
X234701Y174295D02*
Y182596D01*
X238760Y186655D01*
Y210094D01*
X163701Y198854D02*
Y232299D01*
X201158Y197295D02*
X213957Y210094D01*
X207457Y164193D02*
X209359Y166095D01*
X207457Y154595D02*
Y164193D01*
D26*
X232902Y329000D02*
D03*
X208098D02*
D03*
X197402Y328500D02*
D03*
X172598D02*
D03*
X213957Y210094D02*
D03*
X238760D02*
D03*
X231902Y153000D02*
D03*
X207098D02*
D03*
D27*
X176000Y187020D02*
D03*
Y174421D02*
D03*
X401000Y160299D02*
D03*
Y147701D02*
D03*
X282359Y207295D02*
D03*
Y219894D02*
D03*
D29*
X224701Y225456D02*
D03*
X237299D02*
D03*
D33*
X193000Y368902D02*
D03*
Y344098D02*
D03*
X212000D02*
D03*
Y368902D02*
D03*
X278359Y163693D02*
D03*
Y188496D02*
D03*
X190859Y160996D02*
D03*
Y136193D02*
D03*
D62*
X49409Y249500D02*
D03*
X551000Y288000D02*
D03*
X471000Y46500D02*
D03*
D63*
X451000D02*
D03*
D79*
X57602Y169106D02*
X67654Y179157D01*
X106658D01*
X42000Y169106D02*
X57602D01*
X106658Y179157D02*
X117000Y189500D01*
X180484Y303961D02*
X189822Y313299D01*
X180484Y270882D02*
Y303961D01*
X117000Y207397D02*
X180484Y270882D01*
X189822Y313299D02*
X192651D01*
X117000Y189500D02*
Y207397D01*
X172598Y315598D02*
Y329500D01*
X196000Y300701D02*
X206252D01*
X211551Y306000D01*
X193000Y368902D02*
X212000D01*
X230449Y306000D02*
X242000D01*
X201525Y313299D02*
X204253Y316028D01*
X219929D01*
X232902Y329000D01*
Y342098D01*
X208098Y329000D02*
X212000Y332902D01*
Y344098D01*
X193000Y333902D02*
X197402Y329500D01*
X193000Y333902D02*
Y344098D01*
X195000Y290000D02*
Y299701D01*
D81*
X97500Y246681D02*
D03*
D82*
Y217154D02*
D03*
D83*
X375500Y239500D02*
D03*
Y259500D02*
D03*
Y279500D02*
D03*
Y319500D02*
D03*
Y339500D02*
D03*
Y359500D02*
D03*
D03*
X275500Y239500D02*
D03*
Y259500D02*
D03*
Y279500D02*
D03*
Y299500D02*
D03*
Y319500D02*
D03*
Y339500D02*
D03*
D84*
Y359500D02*
D03*
D85*
X168431Y110850D02*
D03*
X129569Y117150D02*
D03*
D86*
X328500Y93925D02*
D03*
Y103925D02*
D03*
X368500D02*
D03*
D87*
Y93925D02*
D03*
D88*
X410000Y339000D02*
D03*
D89*
X503701D02*
D03*
D90*
X440236Y288500D02*
D03*
D91*
X469764D02*
D03*
D92*
X551000Y268000D02*
D03*
X49409Y269500D02*
D03*
D93*
X124472Y43500D02*
D03*
D94*
X183528D02*
D03*
D95*
X42000Y82492D02*
D03*
X75000Y168661D02*
D03*
X162000Y234000D02*
D03*
D96*
X42000Y169106D02*
D03*
X75000Y82047D02*
D03*
X162000Y320614D02*
D03*
X117000Y189500D02*
D03*
X172000Y315000D02*
D03*
X242000Y306000D02*
D03*
X232902Y342098D02*
D03*
X195000Y290000D02*
D03*
D97*
X101000Y275500D02*
D03*
D98*
Y361500D02*
D03*
D99*
X418500Y139000D02*
D03*
X419000Y88685D02*
D03*
D100*
X418500Y99630D02*
D03*
X417988Y211956D02*
D03*
X419000Y49315D02*
D03*
D101*
X378618Y211956D02*
D03*
D102*
X193362Y246000D02*
D03*
X214859D02*
D03*
D103*
X236355D02*
D03*
D104*
X575000Y25000D02*
D03*
Y375000D02*
D03*
X25000Y25000D02*
D03*
Y375000D02*
D03*
D105*
X552000Y210000D02*
D03*
X430000Y154500D02*
D03*
X513000Y153500D02*
D03*
X217116Y166095D02*
D03*
X191252Y187031D02*
D03*
X201158Y179095D02*
D03*
X211035Y225000D02*
D03*
X260500Y189000D02*
D03*
X244158Y179441D02*
D03*
X288500Y125500D02*
D03*
X242500Y149500D02*
D03*
X163701Y198854D02*
D03*
X315413Y149500D02*
D03*
X266922Y183095D02*
D03*
X238071Y125354D02*
D03*
X252858Y165421D02*
D03*
X461500Y104000D02*
D03*
X453500Y128000D02*
D03*
X513500Y135500D02*
D03*
X494781Y97219D02*
D03*
X433500Y108500D02*
D03*
X436461Y144461D02*
D03*
X440317Y85201D02*
D03*
X542000Y86000D02*
D03*
X482500Y171563D02*
D03*
X304359Y207095D02*
D03*
D106*
X442134Y100500D02*
D03*
X433866D02*
D03*
X256992Y201850D02*
D03*
X248724D02*
D03*
X256791Y221456D02*
D03*
X248524D02*
D03*
D107*
X139000Y288051D02*
D03*
Y306949D02*
D03*
X268859Y201850D02*
D03*
Y220748D02*
D03*
X138500Y267949D02*
D03*
Y249051D02*
D03*
D108*
X196000Y300701D02*
D03*
Y313299D02*
D03*
D109*
X211551Y306000D02*
D03*
X230449D02*
D03*
X209859Y136193D02*
D03*
X228756D02*
D03*
D110*
X302500Y191673D02*
D03*
Y163327D02*
D03*
D111*
X258359Y183095D02*
D03*
Y175221D02*
D03*
M02*
