G04*
G04 #@! TF.GenerationSoftware,Altium Limited,Altium Designer,18.1.7 (191)*
G04*
G04 Layer_Color=32896*
%FSLAX25Y25*%
%MOIN*%
G70*
G01*
G75*
%ADD15C,0.01181*%
%ADD17C,0.00500*%
%ADD20C,0.00787*%
%ADD118R,0.10630X0.01968*%
%ADD119R,0.01968X0.10630*%
D15*
X312146Y158996D02*
G03*
X312146Y158996I-591J0D01*
G01*
D17*
X181709Y191547D02*
Y193547D01*
X180709D01*
X180376Y193213D01*
Y192547D01*
X180709Y192214D01*
X181709D01*
X181042D02*
X180376Y191547D01*
X179709Y193213D02*
X179376Y193547D01*
X178710D01*
X178376Y193213D01*
Y192880D01*
X178710Y192547D01*
X179043D01*
X178710D01*
X178376Y192214D01*
Y191881D01*
X178710Y191547D01*
X179376D01*
X179709Y191881D01*
X176377Y193547D02*
X177710D01*
Y192547D01*
X177043Y192880D01*
X176710D01*
X176377Y192547D01*
Y191881D01*
X176710Y191547D01*
X177377D01*
X177710Y191881D01*
X263526Y190355D02*
X263859Y190688D01*
X264525D01*
X264859Y190355D01*
Y189022D01*
X264525Y188689D01*
X263859D01*
X263526Y189022D01*
X261526Y190688D02*
X262859D01*
Y189688D01*
X262193Y190022D01*
X261860D01*
X261526Y189688D01*
Y189022D01*
X261860Y188689D01*
X262526D01*
X262859Y189022D01*
X183500Y365500D02*
Y367499D01*
X182500D01*
X182167Y367166D01*
Y366500D01*
X182500Y366166D01*
X183500D01*
X182834D02*
X182167Y365500D01*
X180501D02*
Y367499D01*
X181501Y366500D01*
X180168D01*
X178168Y365500D02*
X179501D01*
X178168Y366833D01*
Y367166D01*
X178502Y367499D01*
X179168D01*
X179501Y367166D01*
X182201Y338000D02*
Y339999D01*
X181201D01*
X180868Y339666D01*
Y338999D01*
X181201Y338666D01*
X182201D01*
X181534D02*
X180868Y338000D01*
X179202D02*
Y339999D01*
X180201Y338999D01*
X178868D01*
X178202Y338000D02*
X177536D01*
X177869D01*
Y339999D01*
X178202Y339666D01*
X294859Y220895D02*
Y222894D01*
X293859D01*
X293526Y222561D01*
Y221894D01*
X293859Y221561D01*
X294859D01*
X294192D02*
X293526Y220895D01*
X292859Y222561D02*
X292526Y222894D01*
X291860D01*
X291526Y222561D01*
Y222227D01*
X291860Y221894D01*
X292193D01*
X291860D01*
X291526Y221561D01*
Y221228D01*
X291860Y220895D01*
X292526D01*
X292859Y221228D01*
X290860D02*
X290527Y220895D01*
X289860D01*
X289527Y221228D01*
Y222561D01*
X289860Y222894D01*
X290527D01*
X290860Y222561D01*
Y222227D01*
X290527Y221894D01*
X289527D01*
X403589Y165500D02*
Y167499D01*
X402589D01*
X402256Y167166D01*
Y166500D01*
X402589Y166166D01*
X403589D01*
X402922D02*
X402256Y165500D01*
X400256D02*
X401589D01*
X400256Y166833D01*
Y167166D01*
X400590Y167499D01*
X401256D01*
X401589Y167166D01*
X399590Y165500D02*
X398923D01*
X399257D01*
Y167499D01*
X399590Y167166D01*
X446000Y106000D02*
Y107999D01*
X445000D01*
X444667Y107666D01*
Y107000D01*
X445000Y106667D01*
X446000D01*
X445334D02*
X444667Y106000D01*
X444001D02*
X443334D01*
X443667D01*
Y107999D01*
X444001Y107666D01*
X442335D02*
X442001Y107999D01*
X441335D01*
X441002Y107666D01*
Y107333D01*
X441335Y107000D01*
X441002Y106667D01*
Y106333D01*
X441335Y106000D01*
X442001D01*
X442335Y106333D01*
Y106667D01*
X442001Y107000D01*
X442335Y107333D01*
Y107666D01*
X442001Y107000D02*
X441335D01*
X200109Y165623D02*
Y167622D01*
X199109D01*
X198776Y167289D01*
Y166622D01*
X199109Y166289D01*
X200109D01*
X199442D02*
X198776Y165623D01*
X198109D02*
X197443D01*
X197776D01*
Y167622D01*
X198109Y167289D01*
X196443D02*
X196110Y167622D01*
X195444D01*
X195110Y167289D01*
Y166955D01*
X195444Y166622D01*
X195777D01*
X195444D01*
X195110Y166289D01*
Y165956D01*
X195444Y165623D01*
X196110D01*
X196443Y165956D01*
X246535Y228614D02*
Y230613D01*
X245536D01*
X245202Y230280D01*
Y229613D01*
X245536Y229280D01*
X246535D01*
X245869D02*
X245202Y228614D01*
X244536D02*
X243870D01*
X244203D01*
Y230613D01*
X244536Y230280D01*
X241537Y228614D02*
X242870D01*
X241537Y229947D01*
Y230280D01*
X241870Y230613D01*
X242537D01*
X242870Y230280D01*
X249358Y196350D02*
X247359D01*
Y195351D01*
X247692Y195018D01*
X248359D01*
X248692Y195351D01*
Y196350D01*
Y195684D02*
X249358Y195018D01*
Y194351D02*
Y193685D01*
Y194018D01*
X247359D01*
X247692Y194351D01*
X249358Y192685D02*
Y192018D01*
Y192352D01*
X247359D01*
X247692Y192685D01*
X235347Y163000D02*
Y164999D01*
X234347D01*
X234014Y164666D01*
Y164000D01*
X234347Y163666D01*
X235347D01*
X234680D02*
X234014Y163000D01*
X233347D02*
X232681D01*
X233014D01*
Y164999D01*
X233347Y164666D01*
X231681D02*
X231348Y164999D01*
X230681D01*
X230348Y164666D01*
Y163333D01*
X230681Y163000D01*
X231348D01*
X231681Y163333D01*
Y164666D01*
X260657Y225456D02*
Y227456D01*
X259658D01*
X259324Y227122D01*
Y226456D01*
X259658Y226123D01*
X260657D01*
X259991D02*
X259324Y225456D01*
X258658Y225790D02*
X258325Y225456D01*
X257658D01*
X257325Y225790D01*
Y227122D01*
X257658Y227456D01*
X258325D01*
X258658Y227122D01*
Y226789D01*
X258325Y226456D01*
X257325D01*
X280359Y193768D02*
Y195767D01*
X279359D01*
X279026Y195434D01*
Y194767D01*
X279359Y194434D01*
X280359D01*
X279692D02*
X279026Y193768D01*
X278359Y195434D02*
X278026Y195767D01*
X277360D01*
X277026Y195434D01*
Y195101D01*
X277360Y194767D01*
X277026Y194434D01*
Y194101D01*
X277360Y193768D01*
X278026D01*
X278359Y194101D01*
Y194434D01*
X278026Y194767D01*
X278359Y195101D01*
Y195434D01*
X278026Y194767D02*
X277360D01*
X241359Y219595D02*
Y221594D01*
X240359D01*
X240026Y221261D01*
Y220594D01*
X240359Y220261D01*
X241359D01*
X240692D02*
X240026Y219595D01*
X239359Y221594D02*
X238026D01*
Y221261D01*
X239359Y219928D01*
Y219595D01*
X224500Y365500D02*
Y367499D01*
X223500D01*
X223167Y367166D01*
Y366500D01*
X223500Y366166D01*
X224500D01*
X223834D02*
X223167Y365500D01*
X221501D02*
Y367499D01*
X222501Y366500D01*
X221168D01*
X242000Y333902D02*
Y335901D01*
X241000D01*
X240667Y335568D01*
Y334901D01*
X241000Y334568D01*
X242000D01*
X241333D02*
X240667Y333902D01*
X238667D02*
X240000D01*
X238667Y335234D01*
Y335568D01*
X239001Y335901D01*
X239667D01*
X240000Y335568D01*
X239859Y141909D02*
Y139909D01*
X238859D01*
X238526Y140243D01*
Y141576D01*
X238859Y141909D01*
X239859D01*
X237859Y141576D02*
X237526Y141909D01*
X236860D01*
X236526Y141576D01*
Y141242D01*
X236860Y140909D01*
X236526Y140576D01*
Y140243D01*
X236860Y139909D01*
X237526D01*
X237859Y140243D01*
Y140576D01*
X237526Y140909D01*
X237859Y141242D01*
Y141576D01*
X237526Y140909D02*
X236860D01*
X265906Y230247D02*
Y228248D01*
X264906D01*
X264573Y228581D01*
Y229914D01*
X264906Y230247D01*
X265906D01*
X263907D02*
X262574D01*
Y229914D01*
X263907Y228581D01*
Y228248D01*
X316000Y201499D02*
Y199500D01*
X315000D01*
X314667Y199833D01*
Y201166D01*
X315000Y201499D01*
X316000D01*
X312668D02*
X313334Y201166D01*
X314001Y200500D01*
Y199833D01*
X313667Y199500D01*
X313001D01*
X312668Y199833D01*
Y200167D01*
X313001Y200500D01*
X314001D01*
X145587Y316999D02*
Y315000D01*
X144587D01*
X144254Y315333D01*
Y316666D01*
X144587Y316999D01*
X145587D01*
X142254D02*
X143587D01*
Y316000D01*
X142921Y316333D01*
X142588D01*
X142254Y316000D01*
Y315333D01*
X142588Y315000D01*
X143254D01*
X143587Y315333D01*
X145300Y279699D02*
Y277700D01*
X144300D01*
X143967Y278033D01*
Y279366D01*
X144300Y279699D01*
X145300D01*
X142301Y277700D02*
Y279699D01*
X143301Y278700D01*
X141968D01*
X237000Y315692D02*
Y313693D01*
X236000D01*
X235667Y314026D01*
Y315359D01*
X236000Y315692D01*
X237000D01*
X235001Y315359D02*
X234667Y315692D01*
X234001D01*
X233668Y315359D01*
Y315026D01*
X234001Y314693D01*
X234334D01*
X234001D01*
X233668Y314359D01*
Y314026D01*
X234001Y313693D01*
X234667D01*
X235001Y314026D01*
X186167Y315666D02*
X186500Y315999D01*
X187167D01*
X187500Y315666D01*
Y314333D01*
X187167Y314000D01*
X186500D01*
X186167Y314333D01*
X185501Y315666D02*
X185167Y315999D01*
X184501D01*
X184168Y315666D01*
Y315333D01*
X184501Y315000D01*
X184834D01*
X184501D01*
X184168Y314666D01*
Y314333D01*
X184501Y314000D01*
X185167D01*
X185501Y314333D01*
D20*
X172850Y178358D02*
Y183083D01*
X179150Y178358D02*
Y183083D01*
X397850Y151638D02*
Y156362D01*
X404150Y151638D02*
Y156362D01*
X438000Y98335D02*
Y102665D01*
X133685Y294547D02*
X144315D01*
X133685D02*
Y300453D01*
X144315Y294547D02*
Y300453D01*
X186701Y348035D02*
Y364965D01*
X199299Y348035D02*
Y364965D01*
X218299Y348035D02*
Y364965D01*
X205701Y348035D02*
Y364965D01*
X212035Y335299D02*
X228965D01*
X212035Y322701D02*
X228965D01*
X176535Y334799D02*
X193465D01*
X176535Y322201D02*
X193465D01*
X191079Y304835D02*
Y309165D01*
X200921Y304835D02*
Y309165D01*
X218047Y300685D02*
Y311315D01*
X223953D01*
X218047Y300685D02*
X223953D01*
X217894Y203795D02*
X234823D01*
X217894Y216394D02*
X234823D01*
X285508Y211232D02*
Y215957D01*
X279209Y211232D02*
Y215957D01*
X314311Y161949D02*
Y193051D01*
X309980Y161949D02*
X314311D01*
X309980Y193051D02*
X314311D01*
X290689Y161949D02*
X295020D01*
X290689Y193051D02*
X295020D01*
X290689Y161949D02*
Y193051D01*
X284658Y167630D02*
Y184559D01*
X272059Y167630D02*
Y184559D01*
X216355Y130878D02*
Y141508D01*
X222260D01*
X216355Y130878D02*
X222260D01*
X211035Y159299D02*
X227965D01*
X211035Y146701D02*
X227965D01*
X252858Y199685D02*
Y204016D01*
X263544Y208347D02*
X274173D01*
X263544D02*
Y214252D01*
X274173Y208347D02*
Y214252D01*
X252658Y219291D02*
Y223622D01*
X228638Y222307D02*
X233362D01*
X228638Y228606D02*
X233362D01*
X184559Y140130D02*
Y157059D01*
X197158Y140130D02*
Y157059D01*
X133185Y261453D02*
X143815D01*
Y255547D02*
Y261453D01*
X133185Y255547D02*
Y261453D01*
D118*
X139000Y295532D02*
D03*
X268859Y209331D02*
D03*
X138500Y260469D02*
D03*
D119*
X219032Y306000D02*
D03*
X217339Y136193D02*
D03*
M02*
