G04*
G04 #@! TF.GenerationSoftware,Altium Limited,Altium Designer,18.1.7 (191)*
G04*
G04 Layer_Physical_Order=1*
G04 Layer_Color=204*
%FSLAX25Y25*%
%MOIN*%
G70*
G01*
G75*
%ADD11C,0.01000*%
%ADD22C,0.02000*%
%ADD24R,0.14961X0.07992*%
%ADD25R,0.05315X0.11024*%
%ADD26R,0.05118X0.13780*%
%ADD27R,0.07284X0.04921*%
%ADD28R,0.07992X0.14961*%
%ADD29R,0.04921X0.07284*%
%ADD30R,0.07480X0.05315*%
%ADD31R,0.03937X0.02559*%
%ADD32R,0.02559X0.06890*%
%ADD33R,0.13780X0.05118*%
%ADD34R,0.09055X0.19095*%
%ADD35R,0.13583X0.07087*%
%ADD36R,0.06496X0.02559*%
%ADD37R,0.05118X0.06693*%
%ADD62C,0.08400*%
%ADD63R,0.08400X0.08400*%
%ADD79C,0.05000*%
%ADD80C,0.10000*%
%ADD81C,0.06000*%
%ADD82R,0.06000X0.06000*%
%ADD83C,0.10827*%
%ADD84R,0.10827X0.10827*%
%ADD85C,0.13386*%
%ADD86C,0.05512*%
%ADD87R,0.05512X0.05512*%
%ADD88C,0.09843*%
%ADD89R,0.09843X0.09843*%
%ADD90C,0.07600*%
%ADD91R,0.07600X0.07600*%
%ADD92R,0.08400X0.08400*%
%ADD93C,0.06600*%
%ADD94R,0.06600X0.06600*%
%ADD95R,0.07500X0.07500*%
%ADD96C,0.07500*%
%ADD97C,0.09000*%
%ADD98R,0.09000X0.09000*%
%ADD99R,0.06496X0.06496*%
%ADD100C,0.06496*%
%ADD101R,0.06496X0.06496*%
%ADD102C,0.10039*%
%ADD103R,0.10039X0.10039*%
%ADD104C,0.14950*%
%ADD105C,0.05000*%
D11*
X550500Y288500D02*
X551000Y288000D01*
X552000Y210000D02*
X552000Y210000D01*
X552000Y210000D02*
Y230500D01*
X551000Y231500D02*
X552000Y230500D01*
X551000Y245500D02*
X551000Y245500D01*
X319500Y112925D02*
X328500Y103925D01*
X319500Y112925D02*
Y121327D01*
X517299Y339000D02*
X518299Y340000D01*
X428461Y152961D02*
X430000Y154500D01*
X431986Y156485D01*
X446426D01*
X415000Y33500D02*
X434000D01*
X422331Y154500D02*
X422831Y155000D01*
X471858Y117839D02*
Y121500D01*
X468901Y120638D02*
X469764Y121500D01*
X472179Y124778D02*
X472500Y125099D01*
X482500Y151000D02*
X504186D01*
X477500Y156000D02*
X482500Y151000D01*
X487500Y155500D02*
X489500Y153500D01*
X513000D01*
X504186Y151000D02*
X509686Y145500D01*
X268859Y137094D02*
X289953D01*
X217116Y166095D02*
X218359Y167337D01*
X162000Y221761D02*
X162505Y221256D01*
X271500Y238500D02*
X275902Y234098D01*
X249173Y137094D02*
X252858Y140779D01*
X249173Y137094D02*
X272268Y114000D01*
X319500Y156727D02*
Y230197D01*
Y156727D02*
X323413Y152814D01*
Y146186D02*
Y152814D01*
X319500Y142273D02*
X323413Y146186D01*
X319500Y121327D02*
Y142273D01*
X310197Y239500D02*
X319500Y230197D01*
X312173Y114000D02*
X319500Y121327D01*
X249304Y174295D02*
X256209D01*
X234827Y246000D02*
X236355D01*
X219216Y235480D02*
X219236Y235500D01*
X272500Y114000D02*
X312173D01*
X272268D02*
X272500D01*
X289953Y137094D02*
X302359Y149500D01*
X288500Y125500D02*
X294874D01*
X275500Y239500D02*
X310197D01*
X161500Y325500D02*
Y329000D01*
X378618Y200382D02*
X382500Y196500D01*
X378618Y200382D02*
Y211956D01*
X382500Y190594D02*
Y196500D01*
X232079Y149500D02*
X242500D01*
X232000Y149579D02*
X232079Y149500D01*
X249173Y131800D02*
Y137094D01*
X242728Y125354D02*
X249173Y131800D01*
X238071Y125354D02*
X242728D01*
X232126D02*
X238071D01*
X220500Y136980D02*
X232126Y125354D01*
X220500Y149579D02*
X232000D01*
X232000Y149579D02*
X232000Y149579D01*
X232000Y149579D02*
Y160500D01*
X220500Y136980D02*
X232000D01*
X162504Y198854D02*
X163701D01*
X302359Y149500D02*
X315413D01*
X95217Y44500D02*
X124445D01*
X266922Y139032D02*
Y183095D01*
X402776Y50000D02*
X403461Y49315D01*
X419000D01*
X383315Y135500D02*
X386815Y139000D01*
X402776Y50000D02*
Y97324D01*
X382500Y117600D02*
X402776Y97324D01*
X382500Y117600D02*
Y137390D01*
X436461Y144461D02*
X447000D01*
X304359Y207095D02*
X304858Y207594D01*
Y215956D01*
X450500Y232500D02*
X459799D01*
X468000Y224299D01*
X450500Y232500D02*
X455000Y237000D01*
Y248500D01*
X518500Y327201D02*
X523004D01*
X405650Y340000D02*
X408000Y342350D01*
X406250Y358250D02*
X407500Y359500D01*
X252858Y140779D02*
Y165421D01*
X453817Y77518D02*
X454500Y78201D01*
X448000Y77518D02*
X453817D01*
X440317Y85201D02*
X448000Y77518D01*
X434000Y33500D02*
X435000Y34500D01*
X453500Y107314D02*
X465843Y119657D01*
X467920D01*
X468901Y120638D01*
X453500Y91799D02*
X454500Y90799D01*
X468901Y120638D02*
Y121500D01*
X469764D02*
X471858D01*
X468901D02*
Y122142D01*
X453500Y91799D02*
Y107314D01*
X462740Y105240D02*
X486920D01*
X490142Y108462D01*
X461500Y104000D02*
X462740Y105240D01*
X453500Y128000D02*
X457500Y132000D01*
Y144201D01*
X449500Y175000D02*
X457500Y167000D01*
Y156799D02*
Y167000D01*
X509000Y140500D02*
X536044D01*
X503000Y146500D02*
X509000Y140500D01*
X479500Y146500D02*
X503000D01*
X513500Y121795D02*
Y135500D01*
X516314Y145500D02*
X521000Y150186D01*
X509686Y145500D02*
X516314D01*
X480526Y97219D02*
X494781D01*
X438500Y113500D02*
Y120500D01*
X433500Y108500D02*
X438500Y113500D01*
X425500Y126755D02*
X428461Y129715D01*
X425500Y105186D02*
Y126755D01*
Y105186D02*
X431433Y99253D01*
Y80974D02*
Y99253D01*
X429500Y79041D02*
X431433Y80974D01*
X429500Y40000D02*
Y79041D01*
X428461Y129715D02*
Y152961D01*
X382500Y173610D02*
Y190000D01*
X386815Y139000D02*
X418500D01*
X446426Y156485D02*
X447000Y157059D01*
X413500Y35000D02*
X415000Y33500D01*
X429500Y40000D02*
X435000Y34500D01*
X542000Y86000D02*
Y109740D01*
X479807Y96500D02*
X480526Y97219D01*
X490142Y108462D02*
Y119957D01*
X484300Y125799D02*
X490142Y119957D01*
X481000Y125799D02*
X484300D01*
X435000Y34500D02*
X459000D01*
X557456Y134544D02*
X558000Y134000D01*
X542000Y134544D02*
X557456D01*
X531446Y120295D02*
X542000Y109740D01*
X515000Y120295D02*
X531446D01*
X536044Y140500D02*
X542000Y134544D01*
X514803Y107500D02*
X515000Y107696D01*
X515000Y96000D02*
X515000Y96000D01*
Y107696D01*
X513500Y121795D02*
X515000Y120295D01*
X479500Y146500D02*
X482500Y143500D01*
X467500Y146500D02*
X479500D01*
X479807Y90193D02*
Y96500D01*
Y90193D02*
X483500Y86500D01*
Y85299D02*
Y86500D01*
X471858Y85299D02*
X483500D01*
X451000Y46500D02*
X471858Y67358D01*
Y72701D01*
X483500D02*
X484000Y72201D01*
Y59500D02*
Y72201D01*
X471000Y46500D02*
X484000Y59500D01*
X476362Y117839D02*
X481000Y113201D01*
X471858Y117839D02*
X476362D01*
X521000Y155201D02*
X530500Y164701D01*
X521000Y150186D02*
Y155201D01*
X532000Y187437D02*
X546499D01*
X532000Y178799D02*
Y187437D01*
X530500Y177299D02*
X532000Y178799D01*
X546499Y187437D02*
X546500Y187436D01*
X522161Y194080D02*
Y195362D01*
X519402Y191320D02*
X522161Y194080D01*
X459000Y34500D02*
X471000Y46500D01*
X492500Y139476D02*
X497500D01*
X487500D02*
X492500D01*
X448799Y175701D02*
X449500Y175000D01*
X430000Y175701D02*
X448799D01*
X430000Y188299D02*
X431299Y187000D01*
X441201D01*
X453799D02*
X454236Y187436D01*
X468000D01*
X522161Y195362D02*
X526799Y200000D01*
X519402Y187437D02*
Y191320D01*
X512902Y198701D02*
X514201Y200000D01*
X503500Y198701D02*
X512902D01*
X518480Y188358D02*
X519402Y187437D01*
X515201Y211299D02*
X515500Y211000D01*
X503500Y211299D02*
X515201D01*
X503500Y189500D02*
X505500Y187500D01*
X503500Y189500D02*
Y198701D01*
X483299D02*
X487000Y195000D01*
X481500Y200500D02*
X483299Y198701D01*
X487000Y187500D02*
Y195000D01*
X483299Y198701D02*
X492000D01*
X480209Y211299D02*
X492000D01*
X479807Y211701D02*
X480209Y211299D01*
X468000Y201402D02*
X468902Y200500D01*
X468000Y201402D02*
Y211701D01*
Y224299D02*
X479807D01*
X513402Y225697D02*
X515500Y223598D01*
X513402Y225697D02*
Y241000D01*
X447598Y362000D02*
X449098Y363500D01*
X422401Y360000D02*
X424402Y362000D01*
X212859Y162594D02*
X216737Y166473D01*
X199359Y210595D02*
X200358Y209595D01*
X212859Y125094D02*
Y162594D01*
X220299Y288500D02*
X220299Y288500D01*
X192500Y290000D02*
X195000D01*
X266922Y139032D02*
X268859Y137094D01*
X688499Y-360502D02*
X684500D01*
Y-366500D01*
X688499D01*
X684500Y-363501D02*
X686499D01*
X694497Y-361502D02*
X693497Y-360502D01*
X691498D01*
X690498Y-361502D01*
Y-365500D01*
X691498Y-366500D01*
X693497D01*
X694497Y-365500D01*
X700495Y-360502D02*
X696496D01*
Y-366500D01*
X700495D01*
X696496Y-363501D02*
X698495D01*
X702494Y-366500D02*
Y-360502D01*
X706493Y-366500D01*
Y-360502D01*
X718489D02*
X714490D01*
Y-363501D01*
X716490Y-362501D01*
X717489D01*
X718489Y-363501D01*
Y-365500D01*
X717489Y-366500D01*
X715490D01*
X714490Y-365500D01*
X720488Y-361502D02*
X721488Y-360502D01*
X723487D01*
X724487Y-361502D01*
Y-365500D01*
X723487Y-366500D01*
X721488D01*
X720488Y-365500D01*
Y-361502D01*
X726486D02*
X727486Y-360502D01*
X729486D01*
X730485Y-361502D01*
Y-365500D01*
X729486Y-366500D01*
X727486D01*
X726486Y-365500D01*
Y-361502D01*
X732484Y-365500D02*
X733484Y-366500D01*
X735484D01*
X736483Y-365500D01*
Y-361502D01*
X735484Y-360502D01*
X733484D01*
X732484Y-361502D01*
Y-362501D01*
X733484Y-363501D01*
X736483D01*
X744481Y-360502D02*
Y-366500D01*
X748479D01*
X754477Y-360502D02*
X750479D01*
Y-366500D01*
X754477D01*
X750479Y-363501D02*
X752478D01*
X756477Y-360502D02*
Y-366500D01*
X759476D01*
X760475Y-365500D01*
Y-361502D01*
X759476Y-360502D01*
X756477D01*
X768473D02*
Y-366500D01*
X771472D01*
X772472Y-365500D01*
Y-361502D01*
X771472Y-360502D01*
X768473D01*
X774471Y-366500D02*
Y-360502D01*
X777470D01*
X778470Y-361502D01*
Y-363501D01*
X777470Y-364501D01*
X774471D01*
X776470D02*
X778470Y-366500D01*
X780469Y-360502D02*
X782468D01*
X781469D01*
Y-366500D01*
X780469D01*
X782468D01*
X785467Y-360502D02*
Y-364501D01*
X787467Y-366500D01*
X789466Y-364501D01*
Y-360502D01*
X795464D02*
X791465D01*
Y-366500D01*
X795464D01*
X791465Y-363501D02*
X793465D01*
X797464Y-366500D02*
Y-360502D01*
X800463D01*
X801462Y-361502D01*
Y-363501D01*
X800463Y-364501D01*
X797464D01*
X799463D02*
X801462Y-366500D01*
D22*
X423331Y154500D02*
X430000D01*
X422831Y155000D02*
X423331Y154500D01*
X472500Y125099D02*
Y139476D01*
X487500Y155500D02*
Y161524D01*
X233981Y183095D02*
X237406D01*
X243311Y189000D01*
X225233Y167267D02*
Y178220D01*
X220359Y183095D02*
X225233Y178220D01*
X217116Y166095D02*
Y177852D01*
X162000Y221761D02*
Y234000D01*
X233981Y179441D02*
X244158D01*
X191252Y187031D02*
X211736D01*
X201158Y179095D02*
X205032Y175221D01*
X244158Y179441D02*
X249304Y174295D01*
X233981Y190969D02*
Y195484D01*
X231433Y198031D02*
X233981Y195484D01*
X163116Y198031D02*
X231433D01*
X224327Y235500D02*
X234827Y246000D01*
X219236Y235500D02*
X224327D01*
X201059Y235480D02*
X219216D01*
X191078Y225500D02*
X201059Y235480D01*
X200358Y209595D02*
X211035Y220272D01*
Y225000D01*
X243311Y189000D02*
X260500D01*
X225233Y167267D02*
X232000Y160500D01*
X233981Y175221D02*
X243780Y165421D01*
X215810Y179157D02*
X217116Y177852D01*
X211736Y179157D02*
X215810D01*
X243780Y165421D02*
X252858D01*
X211736Y183095D02*
X220359D01*
X502781Y85281D02*
Y100532D01*
X398299Y173610D02*
X413669Y158240D01*
X382500Y173610D02*
X398299D01*
X413669Y143831D02*
X418500Y139000D01*
X413669Y143831D02*
Y150760D01*
X490201Y72701D02*
X502781Y85281D01*
X497500Y105814D02*
X502781Y100532D01*
X497500Y105814D02*
Y107500D01*
Y139476D01*
X514724Y161524D02*
X530500Y177299D01*
X502500Y161524D02*
X514724D01*
X482500D02*
Y171563D01*
X492500Y161524D02*
Y181999D01*
X497500Y107500D02*
X514803D01*
X483500Y72701D02*
X490201D01*
X467500Y146500D02*
Y161524D01*
Y139476D02*
Y146500D01*
X482500Y139476D02*
Y143500D01*
X468901Y122142D02*
X471858Y125099D01*
X477500Y129299D02*
X481000Y125799D01*
X477500Y129299D02*
Y139476D01*
X497500Y179500D02*
X505500Y187500D01*
X497500Y161524D02*
Y179500D01*
X477500Y161524D02*
Y177936D01*
X487000Y187500D02*
X492500Y181999D01*
X468000Y187436D02*
X477500Y177936D01*
X472500Y161524D02*
Y166000D01*
X463500Y175000D02*
X472500Y166000D01*
X449500Y175000D02*
X463500D01*
X477500Y156000D02*
Y161524D01*
X205032Y175221D02*
X211736D01*
D24*
X162505Y221256D02*
D03*
X410000Y360000D02*
D03*
X552000Y230500D02*
D03*
X450500Y232500D02*
D03*
X546500Y187436D02*
D03*
X505500Y187500D02*
D03*
X487000Y187500D02*
D03*
X468000Y187436D02*
D03*
X449500Y175000D02*
D03*
X515000Y96000D02*
D03*
X438500Y120500D02*
D03*
X479807Y96500D02*
D03*
X93500Y45500D02*
D03*
X236500Y368000D02*
D03*
X235500Y288500D02*
D03*
X382500Y196500D02*
D03*
X304858Y215956D02*
D03*
X302359Y149500D02*
D03*
X212859Y98094D02*
D03*
X272500Y114000D02*
D03*
X301500Y125500D02*
D03*
X212844Y123094D02*
D03*
X191078Y225500D02*
D03*
X256209Y175221D02*
D03*
X402776Y50000D02*
D03*
X418000Y33500D02*
D03*
D25*
X424402Y362000D02*
D03*
X437000D02*
D03*
D26*
X473902Y363500D02*
D03*
X449098D02*
D03*
X513402Y241000D02*
D03*
X488598D02*
D03*
D27*
X518500Y327201D02*
D03*
Y339799D02*
D03*
X468000Y211701D02*
D03*
Y224299D02*
D03*
X479807Y211701D02*
D03*
Y224299D02*
D03*
X492000Y198701D02*
D03*
Y211299D02*
D03*
X503500Y198701D02*
D03*
Y211299D02*
D03*
X515500Y211000D02*
D03*
Y223598D02*
D03*
X530500Y177299D02*
D03*
Y164701D02*
D03*
X457500Y156799D02*
D03*
Y144201D02*
D03*
X481000Y125799D02*
D03*
Y113201D02*
D03*
X454500Y78201D02*
D03*
Y90799D02*
D03*
X471858Y72701D02*
D03*
Y85299D02*
D03*
X483500Y72701D02*
D03*
Y85299D02*
D03*
X220500Y136980D02*
D03*
Y149579D02*
D03*
X446000Y156799D02*
D03*
Y144201D02*
D03*
D28*
X522862Y288500D02*
D03*
X558000Y134000D02*
D03*
X468901Y121500D02*
D03*
X161500Y329000D02*
D03*
X200358Y209595D02*
D03*
D29*
X514201Y200000D02*
D03*
X526799D02*
D03*
X519402Y187437D02*
D03*
X532000D02*
D03*
X453799Y187000D02*
D03*
X441201D02*
D03*
X240799Y352500D02*
D03*
X228201D02*
D03*
X207701Y288500D02*
D03*
X220299D02*
D03*
X481500Y200500D02*
D03*
X468902D02*
D03*
D30*
X430000Y175701D02*
D03*
Y188299D02*
D03*
X515000Y120295D02*
D03*
Y107696D02*
D03*
X232000Y149579D02*
D03*
Y136980D02*
D03*
D31*
X422331Y154500D02*
D03*
X413669Y150760D02*
D03*
Y158240D02*
D03*
D32*
X502500Y161524D02*
D03*
X497500D02*
D03*
X492500D02*
D03*
X487500D02*
D03*
X482500D02*
D03*
X477500D02*
D03*
X472500D02*
D03*
X467500D02*
D03*
X502500Y139476D02*
D03*
X497500D02*
D03*
X492500D02*
D03*
X487500D02*
D03*
X482500D02*
D03*
X477500D02*
D03*
X472500D02*
D03*
X467500D02*
D03*
D33*
X542000Y134544D02*
D03*
Y109740D02*
D03*
D34*
X382500Y137390D02*
D03*
Y173610D02*
D03*
D35*
X272342Y137500D02*
D03*
X252658D02*
D03*
D36*
X211736Y190969D02*
D03*
Y187031D02*
D03*
Y183095D02*
D03*
Y179157D02*
D03*
Y175221D02*
D03*
X233981Y190969D02*
D03*
Y183095D02*
D03*
Y179157D02*
D03*
Y175221D02*
D03*
D37*
X69488Y189295D02*
D03*
X49016D02*
D03*
X69488Y223705D02*
D03*
X49016D02*
D03*
D62*
X49409Y249500D02*
D03*
X551000Y288000D02*
D03*
X471000Y46500D02*
D03*
D63*
X451000D02*
D03*
D79*
X522862Y288500D02*
X550500D01*
X551000Y231500D02*
Y245500D01*
X551000Y245500D02*
Y268000D01*
X517000Y363500D02*
X527642Y352858D01*
Y331839D02*
Y352858D01*
X117000Y163782D02*
X182687Y98094D01*
X49016Y176122D02*
Y187437D01*
X42000Y169106D02*
X49016Y176122D01*
X97500Y246681D02*
X101000Y250181D01*
Y275500D01*
X49409Y249500D02*
X101000Y301091D01*
Y339000D01*
X117000Y163782D02*
Y189500D01*
X69488Y174173D02*
X75000Y168661D01*
X69488Y174173D02*
Y189295D01*
X90949Y223705D02*
X97500Y217154D01*
X69488Y223705D02*
X90949D01*
X37500Y235221D02*
X49016Y223705D01*
X37500Y235221D02*
Y257591D01*
X49409Y269500D01*
X161500Y325500D02*
X172000Y315000D01*
X187500Y299500D01*
X182687Y98094D02*
X212859D01*
X240799Y352500D02*
Y363701D01*
X236500Y368000D02*
X240799Y363701D01*
X513402Y241000D02*
Y250402D01*
X551000Y288000D01*
X408000Y360000D02*
X422401D01*
X440236Y263263D02*
X455000Y248500D01*
X481099D02*
X488598Y241000D01*
X455000Y248500D02*
X481099D01*
X440236Y263263D02*
Y288500D01*
X573000Y290000D02*
Y310000D01*
X555799Y327201D02*
X573000Y310000D01*
X523004Y327201D02*
X555799D01*
X551000Y268000D02*
X573000Y290000D01*
X523004Y327201D02*
X527642Y331839D01*
X473902Y363500D02*
X517000D01*
X437000Y362000D02*
X447598D01*
X101000Y339000D02*
Y361500D01*
X207701Y248799D02*
X212500Y244000D01*
X207701Y248799D02*
Y288500D01*
X264000Y306000D02*
X271500Y298500D01*
X242000Y306000D02*
X264000D01*
X220299Y288500D02*
X235500D01*
X242000Y295000D01*
Y306000D01*
X265500Y352500D02*
X271500Y358500D01*
X240799Y352500D02*
X265500D01*
X228201Y346799D02*
Y352500D01*
Y346799D02*
X232902Y342098D01*
X187500Y295000D02*
X192500Y290000D01*
X187500Y295000D02*
Y299500D01*
D80*
X503701Y339000D02*
X517299D01*
X518500Y327201D02*
X518501Y315596D01*
X491411Y288500D02*
X518501Y315596D01*
X472000Y288500D02*
X491411D01*
X406250Y358250D02*
X408000Y356500D01*
Y342350D02*
Y356500D01*
X375500Y339500D02*
X389236D01*
X440236Y288500D01*
X375500Y359500D02*
X407500D01*
D81*
X97500Y246681D02*
D03*
D82*
Y217154D02*
D03*
D83*
X375500Y239500D02*
D03*
Y259500D02*
D03*
Y279500D02*
D03*
Y319500D02*
D03*
Y339500D02*
D03*
Y359500D02*
D03*
D03*
X275500Y239500D02*
D03*
Y259500D02*
D03*
Y279500D02*
D03*
Y299500D02*
D03*
Y319500D02*
D03*
Y339500D02*
D03*
D84*
Y359500D02*
D03*
D85*
X168431Y110850D02*
D03*
X129569Y117150D02*
D03*
D86*
X328500Y93925D02*
D03*
Y103925D02*
D03*
X368500D02*
D03*
D87*
Y93925D02*
D03*
D88*
X410000Y339000D02*
D03*
D89*
X503701D02*
D03*
D90*
X440236Y288500D02*
D03*
D91*
X469764D02*
D03*
D92*
X551000Y268000D02*
D03*
X49409Y269500D02*
D03*
D93*
X124472Y43500D02*
D03*
D94*
X183528D02*
D03*
D95*
X42000Y82492D02*
D03*
X75000Y168661D02*
D03*
X162000Y234000D02*
D03*
D96*
X42000Y169106D02*
D03*
X75000Y82047D02*
D03*
X162000Y320614D02*
D03*
X117000Y189500D02*
D03*
X172000Y315000D02*
D03*
X242000Y306000D02*
D03*
X232902Y342098D02*
D03*
X195000Y290000D02*
D03*
D97*
X101000Y275500D02*
D03*
D98*
Y361500D02*
D03*
D99*
X418500Y139000D02*
D03*
X419000Y88685D02*
D03*
D100*
X418500Y99630D02*
D03*
X417988Y211956D02*
D03*
X419000Y49315D02*
D03*
D101*
X378618Y211956D02*
D03*
D102*
X193362Y246000D02*
D03*
X214859D02*
D03*
D103*
X236355D02*
D03*
D104*
X575000Y25000D02*
D03*
Y375000D02*
D03*
X25000Y25000D02*
D03*
Y375000D02*
D03*
D105*
X552000Y210000D02*
D03*
X430000Y154500D02*
D03*
X513000Y153500D02*
D03*
X217116Y166095D02*
D03*
X191252Y187031D02*
D03*
X201158Y179095D02*
D03*
X211035Y225000D02*
D03*
X260500Y189000D02*
D03*
X244158Y179441D02*
D03*
X288500Y125500D02*
D03*
X242500Y149500D02*
D03*
X163701Y198854D02*
D03*
X315413Y149500D02*
D03*
X266922Y183095D02*
D03*
X238071Y125354D02*
D03*
X252858Y165421D02*
D03*
X461500Y104000D02*
D03*
X453500Y128000D02*
D03*
X513500Y135500D02*
D03*
X494781Y97219D02*
D03*
X433500Y108500D02*
D03*
X436461Y144461D02*
D03*
X440317Y85201D02*
D03*
X542000Y86000D02*
D03*
X482500Y171563D02*
D03*
X304359Y207095D02*
D03*
M02*
