M48
;Layer_Color=9474304
;FILE_FORMAT=2:5
INCH,LZ
;TYPE=PLATED
T1F00S00C0.02800
T2F00S00C0.03200
T3F00S00C0.03543
T4F00S00C0.03740
T5F00S00C0.04000
T6F00S00C0.04200
T7F00S00C0.04600
T8F00S00C0.05000
T9F00S00C0.05118
T10F00S00C0.05200
T11F00S00C0.06496
T12F00S00C0.07874
T13F00S00C0.08071
;TYPE=NON_PLATED
T14F00S00C0.14950
%
T01
X0542Y0086
X0552Y021
X0513Y01535
X05135Y01355
X0494781Y0097219
X04615Y0104
X04535Y0128
X0436461Y0144461
X043Y01545
X04335Y01085
X0440317Y0085201
X04825Y0171563
X0315413Y01495
X02885Y01255
X0238071Y0125354
X02425Y01495
X0252858Y0165421
X0244158Y0179441
X02605Y0189
X0266922Y0183095
X0304359Y0207095
X0217116Y0166095
X0201158Y0179095
X0191252Y0187031
X0163701Y0198854
X0211035Y0225
T02
X00975Y0217154
Y0246681
T03
X03285Y0093925
Y0103925
X03685
Y0093925
T04
X0419Y0049315
Y0088685
X04185Y009963
Y0139
X0417988Y0211956
X0378618
T05
X0117Y01895
X0195Y029
X0172Y0315
X0242Y0306
X0232902Y0342098
T06
X0124472Y00435
X0183528
T07
X0440236Y02885
X0469764
T08
X0075Y0082047
Y0168661
X0042Y0169106
Y0082492
X0162Y0234
Y0320614
T09
X0451Y00465
X0471
X0049409Y02495
Y02695
X0551Y0268
Y0288
T10
X0101Y02755
Y03615
T11
X041Y0339
X0503701
T12
X0129569Y011715
X0168431Y011085
X02755Y02395
Y02595
Y02795
Y02995
Y03195
Y03395
Y03595
X03755
Y03395
Y03195
Y02795
Y02595
Y02395
T13
X0193362Y0246
X0214859
X0236355
T14
X0025Y0025
X0575
Y0375
X0025
M30
