G04*
G04 #@! TF.GenerationSoftware,Altium Limited,Altium Designer,18.1.7 (191)*
G04*
G04 Layer_Color=128*
%FSLAX25Y25*%
%MOIN*%
G70*
G01*
G75*
%ADD26R,0.05118X0.13780*%
%ADD27R,0.07284X0.04921*%
%ADD29R,0.04921X0.07284*%
%ADD33R,0.13780X0.05118*%
%ADD106R,0.04921X0.05906*%
%ADD107R,0.09055X0.10039*%
%ADD108R,0.11024X0.05315*%
%ADD109R,0.10039X0.09055*%
%ADD110R,0.12795X0.10236*%
%ADD111R,0.06102X0.05315*%
D26*
X232902Y329000D02*
D03*
X208098D02*
D03*
X197402Y328500D02*
D03*
X172598D02*
D03*
X213957Y210094D02*
D03*
X238760D02*
D03*
X231902Y153000D02*
D03*
X207098D02*
D03*
D27*
X176000Y187020D02*
D03*
Y174421D02*
D03*
X401000Y160299D02*
D03*
Y147701D02*
D03*
X282359Y207295D02*
D03*
Y219894D02*
D03*
D29*
X224701Y225456D02*
D03*
X237299D02*
D03*
D33*
X193000Y368902D02*
D03*
Y344098D02*
D03*
X212000D02*
D03*
Y368902D02*
D03*
X278359Y163693D02*
D03*
Y188496D02*
D03*
X190859Y160996D02*
D03*
Y136193D02*
D03*
D106*
X442134Y100500D02*
D03*
X433866D02*
D03*
X256992Y201850D02*
D03*
X248724D02*
D03*
X256791Y221456D02*
D03*
X248524D02*
D03*
D107*
X139000Y288051D02*
D03*
Y306949D02*
D03*
X268859Y201850D02*
D03*
Y220748D02*
D03*
X138500Y267949D02*
D03*
Y249051D02*
D03*
D108*
X196000Y300701D02*
D03*
Y313299D02*
D03*
D109*
X211551Y306000D02*
D03*
X230449D02*
D03*
X209859Y136193D02*
D03*
X228756D02*
D03*
D110*
X302500Y191673D02*
D03*
Y163327D02*
D03*
D111*
X258359Y183095D02*
D03*
Y175221D02*
D03*
M02*
